<svg id="Слой_1" data-name="Слой 1" xmlns="http://www.w3.org/2000/svg" viewBox="0 0 394.35 590.39"><defs><style>.cls-1{fill:#7a2edb;}.cls-2{fill:#fb9d26;}.cls-3{fill:#7836e0;}</style></defs><path class="cls-1" d="M274.37,437.7h74.34v22.43H274.37Zm-8.41,0h23.27V561.23H266Zm8.41,51h65v22.43h-65Zm0,50.12h74.34v22.43H274.37Z" transform="translate(-265.96 -213.78)"/><path class="cls-1" d="M370,437.7h28.46l46,94.65-2,2.21V437.7h22.26V561.15H436L390.17,468l2-2.21v95.41H370Z" transform="translate(-265.96 -213.78)"/><path class="cls-1" d="M503.51,538.8h29.65q11.46,0,17.75-5.52t6.29-15.63V481.29q0-10.11-6.29-15.64t-17.75-5.52H503.51V437.7h29.14q15.47,0,26.38,5.18A36.77,36.77,0,0,1,575.64,458q5.68,9.93,5.69,24v35q0,13.34-5.48,23.28a37.32,37.32,0,0,1-16.44,15.46q-11,5.52-26.85,5.52h-29ZM491.78,437.7h23.28V561.23H491.78Z" transform="translate(-265.96 -213.78)"/><ellipse class="cls-2" cx="321.91" cy="294.83" rx="58.09" ry="281.82"/><rect class="cls-3" x="325.26" y="49.61" width="21.33" height="488.15"/><path class="cls-1" d="M660.15,769.55a23.31,23.31,0,0,1,.05,4.94l-.88,8.32a23.72,23.72,0,0,1-1.24,5.47v.12a23.87,23.87,0,0,1-25,15.63l-96.31-10.15a21.36,21.36,0,0,1-21.19-26.36c0,.09-.07.18-.1.27a.38.38,0,0,1,0-.15l.87-8.32a23.87,23.87,0,0,1,26.24-21.23l60.75,6.41V276.72l-66.64-7a23.84,23.84,0,0,1-21.22-26.21v0l.87-8.32a22.91,22.91,0,0,1,.53-3.07,23.93,23.93,0,0,0,21.41,23.26l96.3,10.2a23.59,23.59,0,0,0,7-.29,24.32,24.32,0,0,1-6.94.26l-96.3-10.2a23.93,23.93,0,0,1-21.41-23.26,23.88,23.88,0,0,1,25.71-18.16L639,224.07A23.87,23.87,0,0,1,660.31,247a1.46,1.46,0,0,1,0,.2,21,21,0,0,1-.11,3.17Z" transform="translate(-265.96 -213.78)"/></svg>