<svg id="Слой_1" data-name="Слой 1" xmlns="http://www.w3.org/2000/svg" viewBox="0 0 85.21 96.33"><defs><style>.cls-1{fill:#7a2edb;}.cls-2{fill:none;stroke:#7a2edb;stroke-miterlimit:10;stroke-width:2.5px;}</style></defs><polygon class="cls-1" points="58.7 46.53 57.72 45.77 56.46 45.78 56.46 45.34 56.98 44.66 58.66 45.77 58.96 45.77 58.66 45.77 59.06 46.04 58.7 46.53"/><polygon class="cls-1" points="56.71 46.52 56.39 46.08 56.8 45.78 56.46 45.78 56.46 45.77 56.82 45.77 58.41 44.62 58.96 45.36 58.96 45.77 57.7 45.77 56.71 46.52"/><path class="cls-1" d="M60.06,46.09l.45,0-1.2,1.65-1.72-1.26.31-.06h0C58.61,46.25,59.33,46.16,60.06,46.09Z" transform="translate(-5.04 -2.13)"/><path class="cls-1" d="M64.07,41.17l-.07.1-.26.35-1,1.36-.81,1.12-.44,0c-.74,0-1.47.08-2.2.18-.2,0-.41,0-.63.07h0l2-2.75,1.28-1.75.12-.17.23.17.47.34.88.64.37.27Z" transform="translate(-5.04 -2.13)"/><path class="cls-1" d="M66.85,44.37h0A26.75,26.75,0,0,0,64,44.12a3.09,3.09,0,0,0-.43,0L62.75,43l-1-1.36-.26-.35-.07-.1.07-.05.37-.27.88-.64.47-.34.23-.17.12.17,1.28,1.75Z" transform="translate(-5.04 -2.13)"/><path class="cls-1" d="M67.91,46.45l-1.72,1.26L65,46.06A23.56,23.56,0,0,1,67.91,46.45Z" transform="translate(-5.04 -2.13)"/><path class="cls-1" d="M64,40.85v3.27a3.09,3.09,0,0,0-.43,0c-.27,0-.55,0-.82,0h-.81l-.44,0V40.85Z" transform="translate(-5.04 -2.13)"/><path class="cls-1" d="M63,46c.33,0,.67,0,1,0v1.9H61.5V46c.33,0,.67,0,1,0H63Z" transform="translate(-5.04 -2.13)"/><path class="cls-1" d="M62.75,3.88A25.74,25.74,0,0,0,37,28.89l.38.06c.17,0,.33.06.49.09l.87.17.53.12a29.17,29.17,0,0,1,3.8,1.14l.91.37.67.29c.58.26,1.15.53,1.71.83.27.14.53.29.79.44.7.39,1.37.82,2,1.27.26.17.52.36.78.56s.58.41.86.64l.62.51a6.4,6.4,0,0,1,.49.42c.26.22.49.43.74.67s.25.22.37.34.38.36.56.56l.71.75c.17.18.34.37.5.56.35.39.68.79,1,1.19H86.39a25.78,25.78,0,0,0-23.64-36ZM77.54,16.64a4.82,4.82,0,1,1-4.82-4.82A4.82,4.82,0,0,1,77.54,16.64Zm-14-9.33a3.75,3.75,0,1,1-3.74,3.75A3.75,3.75,0,0,1,63.58,7.31ZM45.4,33.6l-.2-.1.26.14Zm3,1.84.36.27c.27.19.54.39.8.6s.39.31.58.48a5.58,5.58,0,0,1,.46.39c.24.2.46.4.69.62l.34.32h.06A24.84,24.84,0,0,0,48.4,35.44Z" transform="translate(-5.04 -2.13)"/><path class="cls-1" d="M62.75,2.13A27.53,27.53,0,0,0,35.27,28.67l.23,0c.5.06,1,.12,1.51.2l.38.06c.17,0,.33.06.49.09l.87.17a24,24,0,1,1,46.46,8.91H54.32c.17.18.34.37.5.56.35.39.68.79,1,1.19l.53.69c.26.35.5.7.74,1.06H87.54L88,40.56A27.53,27.53,0,0,0,62.75,2.13Z" transform="translate(-5.04 -2.13)"/><polygon class="cls-1" points="28.48 74.12 28.38 74.05 27.5 73.4 26.8 72.89 26.25 73.65 22.04 79.43 24.06 80.9 27.5 76.18 28.54 74.75 28.48 74.12"/><path class="cls-1" d="M33.58,76.88l.12.9a26,26,0,0,0,.58,2.92l-1.74-2.39L31.22,76.5l.44-.32.88-.65.7-.51.21.29q0,.43.06.87a.17.17,0,0,0,0,.07Z" transform="translate(-5.04 -2.13)"/><path class="cls-1" d="M38,81.56l-1.23.89c-.1-.27-.19-.55-.28-.83h0s0,0,0,0a28.37,28.37,0,0,1-.78-3.18Z" transform="translate(-5.04 -2.13)"/><path class="cls-1" d="M33.43,69.14l.24.17c0,.15,0,.31-.06.46v0l-.08.1-1,1.36L31.29,73,29.1,76l-2-1.47,3.36-4.62,1.28-1.75.12-.17.23.17.47.34Z" transform="translate(-5.04 -2.13)"/><path class="cls-1" d="M33.36,68.15l.4.55s0,.07,0,.11,0,.22,0,.33l0,.17c0,.15,0,.31-.06.46v0a.34.34,0,0,0,0,.1c0,.2-.05.4-.07.6l0,.31c0,.54-.08,1.09-.1,1.64l-.86-1.19-1-1.36-.26-.35-.07-.1.07,0,.36-.26.89-.65.47-.34.23-.17Z" transform="translate(-5.04 -2.13)"/><path class="cls-1" d="M38,74.52l-.82.6L36,76l-.68-.94c0-.53,0-1.06,0-1.59,0-.19,0-.39,0-.58h0c0-.67.05-1.31.11-2l1.75,2.41Z" transform="translate(-5.04 -2.13)"/><path class="cls-1" d="M33.7,69.14l0,.17c0,.15,0,.31-.06.46v0a.34.34,0,0,0,0,.1c0,.2-.05.4-.07.6l0,.31c0,.54-.08,1.09-.1,1.64,0,.33,0,.67,0,1,0,.12,0,.26,0,.39,0,.49,0,1,.06,1.46q0,.43.06.87H31.29v-7Z" transform="translate(-5.04 -2.13)"/><path class="cls-1" d="M52.48,41.62c-.49-.61-1-1.19-1.57-1.75a25.65,25.65,0,0,0-13.75-7.28,17.92,17.92,0,0,0-1.79-.25,22.06,22.06,0,0,0-2.83-.17,25.77,25.77,0,0,0-23.64,36h25c0-.08,0-.17,0-.25s.05-.24.07-.37.1-.48.17-.73l.09-.4q.1-.45.24-.9c.08-.31.17-.62.28-.93a5.25,5.25,0,0,1,.17-.52c.17-.5.35-1,.55-1.49.12-.3.24-.59.37-.87a8.67,8.67,0,0,1,.38-.82c.11-.25.22-.48.35-.72s.34-.68.54-1a7.76,7.76,0,0,1,.4-.69,28.35,28.35,0,0,1,3.2-4.39l.61-.67.63-.66.65-.63.48-.45c.23-.21.46-.41.7-.6a9.73,9.73,0,0,1,.79-.65c.5-.4,1-.78,1.55-1.16l1-.62c.57-.37,1.16-.71,1.77-1l.91-.47.94-.45.8-.35c.25-.11.52-.22.79-.31a1.75,1.75,0,0,1,.32-.12,6.26,6.26,0,0,1,.61-.21,16.91,16.91,0,0,1,1.71-.53A24.62,24.62,0,0,0,52.48,41.62Zm-19.1,1.46a3.75,3.75,0,1,1,3.74-3.74A3.75,3.75,0,0,1,33.38,43.08Zm9.13,6.66a4.82,4.82,0,1,1,4.82-4.82A4.82,4.82,0,0,1,42.51,49.74Z" transform="translate(-5.04 -2.13)"/><path class="cls-1" d="M54.7,41.62a21.57,21.57,0,0,0-1.41-1.75c-.36-.42-.74-.83-1.13-1.23-.17-.18-.35-.35-.53-.52l-.34-.32c-.23-.22-.45-.42-.69-.62a5.58,5.58,0,0,0-.46-.39c-.19-.17-.38-.32-.58-.48s-.53-.41-.8-.6l-.36-.27L48,35.19c-.61-.42-1.24-.82-1.89-1.18l-.22-.12a4.09,4.09,0,0,0-.46-.25l-.06,0-.2-.1q-.66-.36-1.35-.66l0,0-.17-.07-.46-.2-.85-.34a26.77,26.77,0,0,0-3.54-1.07c-.43-.1-.87-.19-1.31-.27L37,30.79c-.58-.1-1.17-.18-1.76-.24a27.22,27.22,0,0,0-2.72-.13A27.52,27.52,0,0,0,7.29,68.84l.46,1.06H33.6a.34.34,0,0,1,0-.1v0c0-.15,0-.31.06-.46l0-.17c0-.11,0-.22,0-.33s0-.07,0-.11.07-.37.1-.55,0-.17,0-.25.05-.24.07-.37.1-.48.17-.73l.09-.4H10.08A24,24,0,0,1,32.54,33.92,24,24,0,0,1,49.66,41.1h0l.22.23a23.63,23.63,0,0,1,3.32,4.35,16.91,16.91,0,0,1,1.71-.53l.36-.1a1.58,1.58,0,0,1,.31-.09c.36-.09.72-.17,1.09-.24A27.13,27.13,0,0,0,54.7,41.62Z" transform="translate(-5.04 -2.13)"/><line class="cls-2" x1="58.02" y1="89.06" x2="53.26" y2="95.59"/><line class="cls-2" x1="57.4" y1="89.06" x2="62.16" y2="95.59"/><line class="cls-2" x1="58.02" y1="82.01" x2="53.26" y2="88.55"/><line class="cls-2" x1="57.4" y1="82.01" x2="62.16" y2="88.55"/><line class="cls-2" x1="57.71" y1="89.48" x2="57.71" y2="82.43"/><path class="cls-1" d="M63,47.6h-.46a21.67,21.67,0,0,0-2.29.12c-.68.06-1.36.15-2,.27h0c-.59.09-1.17.22-1.74.36-.28.07-.55.14-.83.23h-.06A25.81,25.81,0,0,0,37.51,68.15c-.06.28-.11.57-.16.85l-.12.9c0,.32-.08.65-.12,1-.08.82-.12,1.64-.12,2.48a24.79,24.79,0,0,0,.18,3,25.41,25.41,0,0,0,1.94,7.23H86.39A25.77,25.77,0,0,0,63,47.6ZM77.54,60.35a4.82,4.82,0,1,1-4.82-4.82A4.82,4.82,0,0,1,77.54,60.35ZM63.58,51a3.75,3.75,0,1,1-3.74,3.75A3.75,3.75,0,0,1,63.58,51Z" transform="translate(-5.04 -2.13)"/><path class="cls-1" d="M66.58,46.11a26.87,26.87,0,0,0-3.83-.27,24.9,24.9,0,0,0-3.23.2c-.19,0-.39,0-.59.07-.45.06-.89.13-1.34.22H57.5c-.49.1-1,.2-1.46.32l-.29.08a24.35,24.35,0,0,0-2.51.79l-.3.11-.74.29-.75.33-.88.42-.85.44c-.57.31-1.12.63-1.66,1-.3.18-.6.38-.89.58-.5.35-1,.71-1.45,1.08-.25.19-.5.4-.74.61l-.65.56-.45.43c-.21.19-.41.39-.61.59s-.4.4-.59.61l-.57.63a26.38,26.38,0,0,0-3,4.11c-.13.21-.26.43-.38.65s-.34.62-.5.94-.23.44-.33.67-.25.51-.36.77-.23.53-.34.81c-.19.46-.36.93-.52,1.4-.06.16-.11.33-.16.49s-.18.58-.26.87-.22.81-.31,1.22c-.06.23-.11.45-.16.68s0,.23-.06.35l-.15.85-.12.9c0,.32-.08.64-.11,1-.07.82-.11,1.65-.11,2.48,0,.12,0,.25,0,.37A27.19,27.19,0,0,0,37.5,84.28l.46,1H87.54L88,84.27A27.53,27.53,0,0,0,66.58,46.11ZM40.29,81.83a23.73,23.73,0,0,1-1.55-8.48c0-.83,0-1.66.12-2.48a23.35,23.35,0,0,1,.36-2.37A24.14,24.14,0,0,1,56.89,50.06L57,50l.7-.16h0a24.35,24.35,0,0,1,5-.51A24,24,0,0,1,85.21,81.83Z" transform="translate(-5.04 -2.13)"/></svg>