<svg id="Слой_1" data-name="Слой 1" xmlns="http://www.w3.org/2000/svg" viewBox="0 0 98.63 98.35"><defs><style>.cls-1,.cls-2,.cls-3{fill:#7a2edb;}.cls-1,.cls-3{stroke:#7a2edb;stroke-miterlimit:10;}.cls-1{stroke-width:11px;}.cls-3{stroke-width:3px;}</style></defs><circle class="cls-1" cx="66.61" cy="66.63" r="22.07"/><path class="cls-2" d="M12.75,99.29l-2.64,1.42A66.7,66.7,0,0,1,10,37.51a19,19,0,0,0,2.27,2.12,63.73,63.73,0,0,0,.49,59.66Z" transform="translate(-2.09 -2.36)"/><path class="cls-2" d="M100.72,10.54l-1.44,2.63a63.68,63.68,0,0,0-58.15-1.52,19,19,0,0,0-2.05-2.33,66.64,66.64,0,0,1,61.64,1.22Z" transform="translate(-2.09 -2.36)"/><circle class="cls-3" cx="22.8" cy="21.42" r="17.21"/></svg>