<?xml version="1.0" encoding="utf-8"?>
<!-- Generator: Adobe Illustrator 25.1.0, SVG Export Plug-In . SVG Version: 6.00 Build 0)  -->
<svg version="1.1" id="Слой_1" xmlns="http://www.w3.org/2000/svg" xmlns:xlink="http://www.w3.org/1999/xlink" x="0px" y="0px"
	 viewBox="0 0 98.4 98.4" style="enable-background:new 0 0 98.4 98.4;" xml:space="preserve">
<style type="text/css">
	.st0{fill:none;stroke:#7A2EDB;stroke-width:3;stroke-miterlimit:10;}
	.st1{fill:none;stroke:#7A2EDB;stroke-width:6;stroke-linecap:round;stroke-miterlimit:10;}
	.st2{fill:none;stroke:#FB9D26;stroke-width:6;stroke-linecap:round;stroke-miterlimit:10;}
</style>
<path class="st0" d="M13.5,1.5h71.4c6.6,0,12,5.4,12,12v71.4c0,6.6-5.4,12-12,12H13.5c-6.6,0-12-5.4-12-12V13.5
	C1.5,6.9,6.9,1.5,13.5,1.5z"/>
<line class="st1" x1="7.5" y1="14.2" x2="90.9" y2="14.2"/>
<line class="st1" x1="7.5" y1="28.2" x2="43.3" y2="28.2"/>
<line class="st2" x1="90.9" y1="28.2" x2="55.1" y2="28.2"/>
<line class="st1" x1="7.5" y1="42.2" x2="90.9" y2="42.2"/>
<line class="st2" x1="7.5" y1="56.2" x2="27.8" y2="56.2"/>
<line class="st1" x1="90.9" y1="56.2" x2="39.7" y2="56.2"/>
<line class="st1" x1="7.5" y1="70.2" x2="90.9" y2="70.2"/>
<line class="st1" x1="7.5" y1="84.2" x2="43.3" y2="84.2"/>
<line class="st1" x1="90.9" y1="84.2" x2="55.1" y2="84.2"/>
</svg>
