<svg id="Слой_1" data-name="Слой 1" xmlns="http://www.w3.org/2000/svg" viewBox="0 0 98.97 98.96"><defs><style>.cls-1{fill:#7a2edb;}.cls-1,.cls-2{stroke:#7a2edb;stroke-miterlimit:10;stroke-width:3px;}.cls-2{fill:none;}.cls-3{fill:#7836e0;}.cls-4{fill:#814cd6;}</style></defs><path class="cls-1" d="M68.82,65.38V84.32A14.28,14.28,0,0,1,54.58,98.56H16.12A14.28,14.28,0,0,1,1.88,84.32V56.8a7.83,7.83,0,0,1,1.51-.57c6-1.64,9.16,4.44,17.05,4.22,6.79-.19,7.77-4.77,14.08-4,5.51.64,5.95,4.3,11.24,4.57s6.93-3.3,12.48-4v.11a8.31,8.31,0,0,0,8.3,8.31Z" transform="translate(-0.38 -1.1)"/><path class="cls-2" d="M58.24,42.2V57c-5.55.72-7.17,4.3-12.48,4S40,57.05,34.52,56.41c-6.31-.73-7.29,3.85-14.08,4-7.89.22-11-5.86-17-4.22a7.83,7.83,0,0,0-1.51.57V45.86A14.59,14.59,0,0,1,6.07,35.8a14.19,14.19,0,0,1,10.05-4.18H35.05V33.9a8.31,8.31,0,0,0,8.31,8.3Z" transform="translate(-0.38 -1.1)"/><path class="cls-1" d="M97.85,29.35v4.54a3.57,3.57,0,0,1-3.56,3.56H74.65V57.08a3.57,3.57,0,0,1-3.56,3.56H66.55A3.57,3.57,0,0,1,63,57.08V37.45H43.36a3.57,3.57,0,0,1-3.56-3.56V29.35a3.57,3.57,0,0,1,3.56-3.56H63V6.16A3.57,3.57,0,0,1,66.55,2.6h4.54a3.57,3.57,0,0,1,3.56,3.56V25.79H94.29A3.57,3.57,0,0,1,97.85,29.35Z" transform="translate(-0.38 -1.1)"/><path class="cls-1" d="M68.82,65.38V84.32A14.28,14.28,0,0,1,54.58,98.56H16.12A14.28,14.28,0,0,1,1.88,84.32V56.8a7.83,7.83,0,0,1,1.51-.57c6-1.64,9.16,4.44,17.05,4.22,6.79-.19,7.77-4.77,14.08-4,5.51.64,5.95,4.3,11.24,4.57s6.93-3.3,12.48-4v.11a8.31,8.31,0,0,0,8.3,8.31Z" transform="translate(-0.38 -1.1)"/><path class="cls-3" d="M67.32,75.88v8.68a12.51,12.51,0,0,1-12.5,12.5H15.88a12.52,12.52,0,0,1-12.5-12.5V66.69c3.45-.8,6.12.56,8.71,1.88C14.48,69.79,17,71,20.4,71a12,12,0,0,0,6.29-2c2.08-1.19,4.23-2.43,8-2A12.49,12.49,0,0,1,41,69.56a8,8,0,0,0,4.82,1.92c2.44.13,3.91-.67,5.78-1.68a17.16,17.16,0,0,1,6.43-2.33l1.69-.22v1.82a6.81,6.81,0,0,0,6.8,6.81Z" transform="translate(-0.38 -1.1)"/><circle class="cls-4" cx="9.36" cy="68.05" r="2.59"/><circle class="cls-4" cx="28.55" cy="62.86" r="2.59"/><circle class="cls-4" cx="39.13" cy="71.93" r="3.55"/><circle class="cls-4" cx="23.47" cy="79" r="2.01"/><circle class="cls-4" cx="11.95" cy="88.53" r="3.55"/><circle class="cls-4" cx="57.08" cy="86.94" r="2.77"/><circle class="cls-4" cx="59.63" cy="69.79" r="4.33"/><circle class="cls-4" cx="34.52" cy="89.13" r="2.19"/><circle class="cls-4" cx="48.63" cy="64.72" r="2.22"/></svg>