<?xml version="1.0" encoding="utf-8"?>
<!-- Generator: Adobe Illustrator 25.1.0, SVG Export Plug-In . SVG Version: 6.00 Build 0)  -->
<svg version="1.1" id="Слой_1" xmlns="http://www.w3.org/2000/svg" xmlns:xlink="http://www.w3.org/1999/xlink" x="0px" y="0px"
	 viewBox="0 0 99 99" style="enable-background:new 0 0 99 99;" xml:space="preserve">
<style type="text/css">
	.st0{fill:#7A2EDB;stroke:#7A2EDB;stroke-width:3;stroke-miterlimit:10;}
	.st1{fill:none;stroke:#7A2EDB;stroke-width:3;stroke-miterlimit:10;}
	.st2{fill:#FB9D26;stroke:#FB9D26;stroke-width:3;stroke-miterlimit:10;}
	.st3{fill:#7836E0;}
	.st4{fill:#814CD6;}
</style>
<path class="st0" d="M68.4,64.3v18.9c0,7.9-6.4,14.2-14.2,14.2H15.7c-7.9,0-14.2-6.4-14.2-14.2V55.7c0.5-0.2,1-0.4,1.5-0.6
	c6-1.6,9.2,4.4,17,4.2c6.8-0.2,7.8-4.8,14.1-4c5.5,0.6,6,4.3,11.2,4.6s6.9-3.3,12.5-4V56c0,4.6,3.7,8.3,8.3,8.3L68.4,64.3z"/>
<path class="st1" d="M57.9,41.1v14.8c-5.5,0.7-7.2,4.3-12.5,4s-5.8-4-11.2-4.6c-6.3-0.7-7.3,3.8-14.1,4c-7.9,0.2-11-5.9-17-4.2
	c-0.5,0.1-1,0.3-1.5,0.6V44.8c0-3.8,1.5-7.4,4.1-10.1c2.7-2.7,6.3-4.2,10.1-4.2h18.9v2.3c0,4.6,3.7,8.3,8.3,8.3H57.9z"/>
<path class="st2" d="M97.5,28.2v4.5c0,2-1.6,3.6-3.6,3.6H74.3V56c0,2-1.6,3.6-3.6,3.6h-4.5c-2,0-3.5-1.6-3.6-3.6V36.4H43
	c-2,0-3.6-1.6-3.6-3.6v-4.5c0-2,1.6-3.6,3.6-3.6h19.6V5.1c0-2,1.6-3.5,3.6-3.6h4.5c2,0,3.6,1.6,3.6,3.6v19.6h19.6
	C95.9,24.7,97.5,26.3,97.5,28.2z"/>
<path class="st0" d="M68.4,64.3v18.9c0,7.9-6.4,14.2-14.2,14.2H15.7c-7.9,0-14.2-6.4-14.2-14.2V55.7c0.5-0.2,1-0.4,1.5-0.6
	c6-1.6,9.2,4.4,17,4.2c6.8-0.2,7.8-4.8,14.1-4c5.5,0.6,6,4.3,11.2,4.6s6.9-3.3,12.5-4V56c0,4.6,3.7,8.3,8.3,8.3L68.4,64.3z"/>
<path class="st3" d="M66.9,74.8v8.7c0,6.9-5.6,12.5-12.5,12.5H15.5C8.6,95.9,3,90.4,3,83.5V65.6c3.4-0.8,6.1,0.6,8.7,1.9
	c2.4,1.2,4.9,2.4,8.3,2.4c2.2-0.1,4.4-0.8,6.3-2c2.1-1.2,4.2-2.4,8-2c2.3,0.3,4.5,1.1,6.3,2.6c1.3,1.2,3,1.8,4.8,1.9
	c2.4,0.1,3.9-0.7,5.8-1.7c2-1.2,4.2-2,6.4-2.3l1.7-0.2V68c0,3.8,3,6.8,6.8,6.8L66.9,74.8z"/>
<circle class="st4" cx="9.4" cy="68.1" r="2.6"/>
<circle class="st4" cx="28.5" cy="62.9" r="2.6"/>
<circle class="st4" cx="39.1" cy="71.9" r="3.6"/>
<circle class="st4" cx="23.5" cy="79" r="2"/>
<circle class="st4" cx="11.9" cy="88.5" r="3.6"/>
<circle class="st4" cx="57.1" cy="86.9" r="2.8"/>
<circle class="st4" cx="59.6" cy="69.8" r="4.3"/>
<circle class="st4" cx="34.5" cy="89.1" r="2.2"/>
<circle class="st4" cx="48.6" cy="64.7" r="2.2"/>
</svg>
