<svg id="Слой_1" data-name="Слой 1" xmlns="http://www.w3.org/2000/svg" xmlns:xlink="http://www.w3.org/1999/xlink" viewBox="0 0 2310.58 760.39"><defs><style>.cls-1{fill:#4d301a;}.cls-2{fill:url(#Безымянный_градиент_25);}.cls-3{fill:url(#Безымянный_градиент_7);}.cls-4{fill:#583a24;}.cls-5{fill:url(#Безымянный_градиент_5);}.cls-6{fill:url(#Оранжевый_желтый);}</style><linearGradient id="Безымянный_градиент_25" x1="1612.57" y1="691.31" x2="1612.57" y2="967.59" gradientUnits="userSpaceOnUse"><stop offset="0" stop-color="#f6bf45"/><stop offset="1" stop-color="#ef9b5e"/></linearGradient><linearGradient id="Безымянный_градиент_7" x1="498.03" y1="396.22" x2="348" y2="1247.05" gradientUnits="userSpaceOnUse"><stop offset="0" stop-color="#fff448"/><stop offset="0.05" stop-color="#ffe442"/><stop offset="0.12" stop-color="#ffd13b"/><stop offset="0.2" stop-color="#ffc636"/><stop offset="0.28" stop-color="#ffc235"/><stop offset="0.67" stop-color="#f58b4e"/><stop offset="0.89" stop-color="#f06d4e"/><stop offset="1" stop-color="#ec574e"/></linearGradient><linearGradient id="Безымянный_градиент_5" x1="488.08" y1="445.6" x2="351.23" y2="1221.74" xlink:href="#Безымянный_градиент_7"/><linearGradient id="Оранжевый_желтый" x1="81.88" y1="813.84" x2="939.95" y2="821.64" xlink:href="#Безымянный_градиент_7"/></defs><g id="Name"><path class="cls-1" d="M908.39,738.25q41.86-13.39,79.32-13.39t61.1,11.39a126.33,126.33,0,0,1,9.4,48.14A135.63,135.63,0,0,1,1041.83,849q-16.38,30.76-47.57,51.13t-69.64,21.5Zm99.12,65.51q0-20.79-6.12-37t-17.52-22.79a49.61,49.61,0,0,0-12.53,2L955.67,897.75q25.64-10.53,38.74-36.89A126.51,126.51,0,0,0,1007.51,803.76Zm101.39-39.59q68.94,27.63,68.93,68.64,0,21.36-12.1,30.9t-44.86,9.54q-20.8,0-34.18-3.13a73.77,73.77,0,0,0-5.41,27.91,221.43,221.43,0,0,0,29,1.71,164,164,0,0,0,55.82-9.4L1174.7,918q-20.79,6.56-46.71,6.55-46.14,0-67.79-16.8a173.85,173.85,0,0,1-4.56-38.17q0-35.89,15.81-64.65T1108.9,764.17Zm-16.52,92.56q3.7.28,18.66.29a172.4,172.4,0,0,0,34.32-4,69.12,69.12,0,0,0,.86-10.82,62.82,62.82,0,0,0-9.4-32.76A139.16,139.16,0,0,0,1092.38,856.73Zm281.41,61-105.67,2.56-13.39-187.7,67.79-4.27L1302,897.18l72.92-8.83Zm11.39,6.55a63.2,63.2,0,0,1-7.12-.29q-9.69-6.56-15.53-19.51a64.85,64.85,0,0,1-5.83-26.91q0-18.22,13.81-26.49t50.84-8.26a213.31,213.31,0,0,1,28.48,2l-.57-6.27a24,24,0,0,0-10.82-18.08q-9.69-6.69-24.78-6.69t-30.19,9.39l-12.53-41.3q24.49-10,55.82-10T1476.32,786q18.23,14.1,18.23,44a80.24,80.24,0,0,1-.57,10.82l-8,78.62-28.2,2.56-4.27-41.3h-2.28q-9.69,20.51-26.78,32T1385.18,924.24ZM1451,856.73l-15.09-.28q-18.81,0-30.76,2-4,8-4,14.24a41.44,41.44,0,0,0,1.71,12q1.71,5.7,3.7,7.69Q1440.73,886.93,1451,856.73Zm171.75,40.16A161.64,161.64,0,0,0,1680,886.64l9.68,30.76a158.42,158.42,0,0,1-47,7.12q-23.93,0-42.58-5.12T1571.45,906a237.77,237.77,0,0,1-4.85-47.28q0-47.57,18-86.3t41.3-54.12l55,34.75q-39.3,25.07-62.38,63.8t-23.07,78A171,171,0,0,0,1622.72,896.89ZM1773.39,824q-19.38,0-29.34,13.53t-14.52,49.7l-4,32.19-28.2,2.56-14.53-141.27,61-9.4-5.7,45.57h2q22.79-49,58.11-52.13l-8,60.67A133.86,133.86,0,0,0,1773.39,824Zm33.89,98-14.53-141,61-9.4L1835.48,919.4Zm-5.55-172.75a26.14,26.14,0,1,1,18.65,7.83A25.44,25.44,0,0,1,1801.73,749.21Zm178.44,19.51a33,33,0,0,1,10.53,1.71q14.54,17.67,19.94,61.1a695.85,695.85,0,0,1,5.41,86.16L1964.79,922q0-65.51-4.85-119.34-37.87,13.95-50.41,116.78l-28.2,2.56L1866.8,780.69l61-9.4-6.27,50.13h2.56q11.4-24.78,25.92-38.74T1980.17,768.72Zm145.54,211.63q-28.49,0-58.68-19.94l8-14.24q25.35,11.1,42,11.11t24.5-8.83q7.83-8.84,7.83-23.64,0-4.56-6-62.95h-2.28q-21.08,56.68-71.78,56.68a25.36,25.36,0,0,1-11.39-2.28q-10.55-10.53-17-30.9t-6.41-45.72q0-32.75,13.25-48t46-15.24q23.93,0,41.3,11.4l6.26-8.26,54.69-8.26L2176.41,930.5q-2.85,23.07-15.95,36.46T2125.71,980.35Zm-20.79-187.13q-10.55,0-18,4a198.56,198.56,0,0,0-4,40.16,344.83,344.83,0,0,0,1.7,36.6q1.71,15.79,4,21.5,13.68-2.57,29.05-18.51,8.26-8.55,13.53-24.64t5.27-36.6q0-3.42-.57-12.53Q2122.86,793.21,2104.92,793.22Zm153.23-29.05q68.92,27.63,68.93,68.64,0,21.36-12.11,30.9t-44.86,9.54q-20.79,0-34.18-3.13a73.77,73.77,0,0,0-5.41,27.91,221.54,221.54,0,0,0,29.05,1.71,164,164,0,0,0,55.83-9.4l8.54,27.63q-20.79,6.56-46.71,6.55-46.14,0-67.79-16.8a173.81,173.81,0,0,1-4.55-38.17q0-35.89,15.8-64.65T2258.15,764.17Zm-16.52,92.56q3.69.28,18.66.29a172.56,172.56,0,0,0,34.32-4,69.11,69.11,0,0,0,.85-10.82,62.73,62.73,0,0,0-9.4-32.76A139,139,0,0,0,2241.63,856.73Z" transform="translate(-16.5 -461.7)"/><path class="cls-2" d="M903.22,725.49q41.87-13.38,79.33-13.39t61.09,11.4a126.32,126.32,0,0,1,9.4,48.13,135.7,135.7,0,0,1-16.38,64.66q-16.38,30.76-47.56,51.13t-69.64,21.5ZM1002.34,791q0-20.79-6.12-37T978.7,731.19a50,50,0,0,0-12.53,2L950.5,885q25.63-10.54,38.74-36.89A126.52,126.52,0,0,0,1002.34,791Zm101.4-39.59q68.92,27.63,68.92,68.64,0,21.38-12.1,30.91t-44.86,9.54q-20.79,0-34.18-3.13a73.73,73.73,0,0,0-5.41,27.91,221.43,221.43,0,0,0,29.05,1.71,164.07,164.07,0,0,0,55.83-9.4l8.54,27.63q-20.79,6.54-46.71,6.55-46.14,0-67.79-16.81a173.77,173.77,0,0,1-4.56-38.16q0-35.89,15.81-64.66T1103.74,751.41ZM1087.22,844q3.69.28,18.65.28a172.32,172.32,0,0,0,34.32-4,69.35,69.35,0,0,0,.86-10.83,62.69,62.69,0,0,0-9.4-32.75A139,139,0,0,0,1087.22,844Zm281.4,60.95L1263,907.5l-13.39-187.7,67.79-4.28-20.5,168.9,72.91-8.82Zm11.39,6.55a63.78,63.78,0,0,1-7.12-.28q-9.69-6.56-15.52-19.51a64.72,64.72,0,0,1-5.84-26.92q0-18.22,13.81-26.49t50.84-8.26a213.63,213.63,0,0,1,28.49,2l-.57-6.27a24,24,0,0,0-10.83-18.09q-9.68-6.67-24.78-6.69t-30.19,9.4l-12.53-41.3q24.49-10,55.83-10t49.56,14.1q18.22,14.1,18.22,44a80.44,80.44,0,0,1-.57,10.82l-8,78.61-28.2,2.57-4.27-41.3h-2.28q-9.69,20.51-26.77,32T1380,911.48Zm65.8-67.5-15.1-.29q-18.8,0-30.76,2-4,8-4,14.24a41.32,41.32,0,0,0,1.71,12c1.14,3.8,2.37,6.37,3.7,7.69Q1435.56,874.18,1445.81,844Zm171.74,40.16a161.83,161.83,0,0,0,57.25-10.25l9.68,30.76a158.68,158.68,0,0,1-47,7.12q-23.92,0-42.58-5.13t-28.63-13.39a237.67,237.67,0,0,1-4.84-47.28q0-47.57,17.94-86.3t41.3-54.12l55,34.75q-39.3,25.07-62.37,63.8t-23.07,78A170.82,170.82,0,0,0,1617.55,884.14Zm150.67-72.92q-19.37,0-29.34,13.53t-14.52,49.71l-4,32.18-28.2,2.57-14.52-141.28,60.95-9.4-5.7,45.57h2q22.78-49,58.1-52.12l-8,60.67A132.44,132.44,0,0,0,1768.22,811.22Zm33.89,98-14.52-141,61-9.4-18.23,147.82Zm-5.55-172.75a26.14,26.14,0,1,1,18.65,7.83A25.44,25.44,0,0,1,1796.56,736.46ZM1975,756a33.15,33.15,0,0,1,10.54,1.71q14.52,17.66,19.93,61.09a696,696,0,0,1,5.42,86.16l-51.27,4.28q0-65.52-4.84-119.35-37.89,14-50.42,116.78l-28.2,2.57-14.52-141.28,60.95-9.4-6.27,50.13h2.57q11.38-24.78,25.92-38.74T1975,756Zm145.54,211.62q-28.48,0-58.67-19.93l8-14.24q25.35,11.1,42,11.1t24.5-8.83q7.83-8.82,7.83-23.64,0-4.56-6-62.94h-2.28q-21.08,56.68-71.77,56.68a25.38,25.38,0,0,1-11.4-2.28q-10.53-10.53-16.94-30.91t-6.41-45.71q0-32.75,13.24-48t46-15.24q23.93,0,41.3,11.39l6.27-8.26,54.68-8.26-19.65,159.22q-2.85,23.07-15.95,36.46T2120.54,967.59Zm-20.79-187.13q-10.55,0-17.94,4a197.92,197.92,0,0,0-4,40.16,344.6,344.6,0,0,0,1.71,36.6q1.71,15.81,4,21.51,13.68-2.57,29.06-18.52,8.25-8.54,13.53-24.64t5.27-36.6c0-2.27-.2-6.45-.57-12.53Q2117.69,780.47,2099.75,780.46ZM2253,751.41q68.92,27.63,68.93,68.64,0,21.38-12.1,30.91T2265,860.5q-20.8,0-34.18-3.13a73.74,73.74,0,0,0-5.42,27.91,221.59,221.59,0,0,0,29.06,1.71,164,164,0,0,0,55.82-9.4l8.55,27.63q-20.81,6.54-46.71,6.55-46.16,0-67.79-16.81a173.77,173.77,0,0,1-4.56-38.16q0-35.89,15.81-64.66T2253,751.41ZM2236.46,844q3.7.28,18.66.28a172.32,172.32,0,0,0,34.32-4,69.33,69.33,0,0,0,.85-10.83,62.77,62.77,0,0,0-9.39-32.75A139.07,139.07,0,0,0,2236.46,844Z" transform="translate(-16.5 -461.7)"/></g><g id="Logo"><path class="cls-3" d="M639,888.63l-.08-.09-.68-.71-.38-.39a12.28,12.28,0,0,1-2.1-2.93c-7.11-13.82-17.35-33-17.45-33.17-4.27-7.94-2.91-13.59-1.76-18.12l.38-1.77c-2.53-6.44-1.37-11.22-.38-15.16l6.79-31.67c.05-.18.09-.36.13-.53a28.51,28.51,0,0,1,5.12-10.42l4-5.21a230.22,230.22,0,0,0-49.31-97.05,12.47,12.47,0,0,1-3.72,2.43A132,132,0,0,1,562,679.42l-1.71.43a12.7,12.7,0,0,1-2.9.33h-.11l-.55,0c-12.33-.58-28.39-1.14-36.85-1.41l-.61,0c-8.89-.25-13.11-4.25-16.47-7.51l-24.07-21.7-.4-.39a28.75,28.75,0,0,1-6.46-9.62l-4.21-10.34a235.54,235.54,0,0,0-77.18-13.95h-2.2a225.27,225.27,0,0,0-42.29,4,12.7,12.7,0,0,1,.25,4.48,129.78,129.78,0,0,1-3.9,17.93l-.47,1.62a12.06,12.06,0,0,1-1.49,3.29c-8.34,13-19.4,30.84-19.89,31.66-4.76,7.74-10.33,9.39-14.85,10.66l-30.77,10a4.67,4.67,0,0,1-.56.18,28.91,28.91,0,0,1-7.69,1h-.27a27.06,27.06,0,0,1-3.59-.24l-11.06-1.52a233.87,233.87,0,0,0-64,86.61A138,138,0,0,1,200,796.16l1.24,1.3a12.27,12.27,0,0,1,2,2.83c7.18,13.83,17.46,33,17.56,33.12,4.29,8,2.94,13.59,1.8,18.12l-.38,1.84c2.52,6.39,1.38,11.16.38,15.09l-6.69,31.69c0,.17-.07.33-.11.49a28.81,28.81,0,0,1-5.13,10.48l-4,5.16a230.43,230.43,0,0,0,49.59,97,12.83,12.83,0,0,1,3.73-2.45,131.54,131.54,0,0,1,17.43-5.6l1.88-.47a13.17,13.17,0,0,1,2.82-.31h.56c9,.39,22,.85,36.7,1.31l.83,0c8.9.21,13.13,4.21,16.51,7.47l24.1,21.61a5.07,5.07,0,0,1,.4.38,28.79,28.79,0,0,1,6.51,9.63l4.25,10.32a234.91,234.91,0,0,0,76.55,13.72h2.21a227,227,0,0,0,42.93-4.09,12.45,12.45,0,0,1-.28-4.48,131.74,131.74,0,0,1,3.87-18c.07-.24.3-1.08.5-1.74a11.87,11.87,0,0,1,1.43-3.14c6.63-10.41,15.1-24.09,19.56-31.33l.33-.53c4.66-7.63,10.22-9.29,14.72-10.59l30.76-10.09.51-.16a29.11,29.11,0,0,1,7.79-1.08h.28a28.13,28.13,0,0,1,3.55.27l11,1.45A234.07,234.07,0,0,0,651,899.8,142.16,142.16,0,0,1,639,888.63Zm-58,39.55L570,934a1.9,1.9,0,0,1-2.18-.25L489.23,886.5c-6.48-4-9.75-6.22-15.54-6.22L365,880.36c-5.79,0-9.06,2.25-15.54,6.24L271.38,934a1.87,1.87,0,0,1-2.17.26l-11-5.8a31,31,0,0,1-15.06-36.93l43.13-134.44A4.17,4.17,0,0,1,290,754.2a6.61,6.61,0,0,0,3.27-1.13,6.52,6.52,0,0,0,2.23-2.66l.53-1.17a13.26,13.26,0,0,1,10.84-7.68l35.16-3.22a16.56,16.56,0,0,1,15.75,8l3.61,6c.71,1.18,3.34,1.9,3.34,1.9l21.31,0a2.6,2.6,0,0,0,1.33-.35l3.84-2.26a2.31,2.31,0,0,1,1.17-.32l54.11-.05a2.38,2.38,0,0,1,1.16.32l3.85,2.25a2.6,2.6,0,0,0,1.32.36l21.3,0s2.64-.72,3.34-1.89l3.59-6.07a16.62,16.62,0,0,1,15.75-8L532,741.39a13.23,13.23,0,0,1,10.85,7.66l.53,1.17a6.62,6.62,0,0,0,2.23,2.65A6.53,6.53,0,0,0,548.9,754a4.23,4.23,0,0,1,3.76,2.89L596,891.24A31,31,0,0,1,581,928.18Z" transform="translate(-16.5 -461.7)"/><path class="cls-4" d="M680.64,860.58a4,4,0,0,0-2.25,3c-8.72,56.9-38.43,109.29-83.68,147.53a4.36,4.36,0,0,1-1.35.77l-.83.32a4.4,4.4,0,0,1-1.57.28l-.5,0-12.67-1.68a21.69,21.69,0,0,0-2.54-.18,20.48,20.48,0,0,0-5.77.77l-.17,0L538,1021.72c-4.12,1.19-7.11,2.07-10.14,7l-.34.55c-4.53,7.35-13.14,21.25-19.9,31.87a3.93,3.93,0,0,0-.47,1c-.18.61-.4,1.39-.47,1.68h0a124.64,124.64,0,0,0-3.64,16.9,4,4,0,0,0,3.95,4.51,4.44,4.44,0,0,0,1-.12c6.37-1.61,12.76-3.52,19-5.68a4,4,0,0,0,2.38-2.24l1.65-3.89a5.84,5.84,0,0,1,5.44-3.58l7.12,0a5,5,0,0,1,4.93,5l-.21,32.89a2.17,2.17,0,0,0,0,.36l-.37,57.17a12.86,12.86,0,0,0,25.66,1.38,4.17,4.17,0,0,0,0-.5v-.71l.38-60.27,4.86,0v2.72l-.36,57.51c0,.24,0,.48,0,.72a3,3,0,0,0,0,.52,12.86,12.86,0,0,0,25.6.16,3.84,3.84,0,0,0,0-.59c0-.13,0-.27,0-.4v-.26c0-2.6.08-12.44.08-12.44s0-.65,0-1.7l.2-30.48v-.78l.1-14.82,4.85,0v2.41l-.37,57.84c0,.24,0,.49,0,.73a3.93,3.93,0,0,0,0,.49,12.85,12.85,0,0,0,25.59.16,4.61,4.61,0,0,0,0-.53c0-.22,0-.44,0-.67l.38-60.27,4.86,0v2.4l-.37,57.84c0,.2,0,.4,0,.61a4.3,4.3,0,0,0,0,.62,12.86,12.86,0,0,0,25.67-1.06c.29-45,2.25-75,2.64-80.49v-.09a9.11,9.11,0,0,0-.06-1.35l-.1-1.22c-.29-3.86-.31-4.09,1.21-14.41l0-.26.09-.25c1.07-2.73,4.06-6.3,6.55-8.62l.19-.2,8-8.58a335,335,0,0,0,76.87-141.95,4,4,0,0,0-2.67-4.82,18,18,0,0,1-3.66-1.66l-69.78-41.34a3.91,3.91,0,0,0-2-.56A4,4,0,0,0,680.64,860.58Zm-45.4-277.09a17.77,17.77,0,0,1-3.35,2.45l-70.54,39.74a4,4,0,0,0-.53,6.65c45.37,36.25,76,88.64,86.33,147.51a4.26,4.26,0,0,1,0,1.51l-.16.93a4.3,4.3,0,0,1-.83,1.89l-7.85,10.1a20.55,20.55,0,0,0-3.67,7.49.75.75,0,0,0,0,.16l-6.92,32.26c-1,4.17-1.79,7.19,1,12.37.08.16,10.46,19.59,17.76,33.77a4.47,4.47,0,0,0,.68.95l.38.39c.32.33.64.66.78.82a127.41,127.41,0,0,0,12.63,11.58,4,4,0,0,0,6.31-2.07c1.84-6.36,3.42-12.87,4.69-19.35a4,4,0,0,0-.72-3.19l-2.42-3.22a5.84,5.84,0,0,1-.34-6.51l3.61-6.1a5,5,0,0,1,4.35-2.44,4.83,4.83,0,0,1,2.48.69L756.65,898a13,13,0,0,0,6.41,1.8,12.87,12.87,0,0,0,7.71-23.26,4.08,4.08,0,0,0-.44-.28l-.6-.34-51.85-30.7,2.46-4.19,2.1,1.22,49.76,29.46.43.26.24.15.39.21a12.65,12.65,0,0,0,5.34,1.23,12.91,12.91,0,0,0,11.2-6.31,12.86,12.86,0,0,0-3.5-16.94L786,850l-.69-.39L733.42,819l2.46-4.19L738,816l49.77,29.47.59.37a2.77,2.77,0,0,0,.48.26,12.49,12.49,0,0,0,5.33,1.22,13,13,0,0,0,3.33-.4A12.87,12.87,0,0,0,801.84,824c-.13-.09-.26-.18-.4-.26l-.13-.07-.51-.29L749,792.71l2.48-4.18,2.08,1.21,49.8,29.5.56.34a5,5,0,0,0,.46.26,12.86,12.86,0,0,0,12-22.7c-37.74-22.35-61.74-38.45-68.19-42.86l-.15-.09a10.75,10.75,0,0,0-1.34-.68l-.88-.43c-3.45-1.68-3.73-1.81-11.82-8.29l-.22-.18-.17-.21c-1.83-2.31-3.4-6.69-4.15-10a2.68,2.68,0,0,0-.07-.27L726,722.86a334.65,334.65,0,0,0-85.23-139.29,4,4,0,0,0-5.53-.08ZM572,479.67c-38.17,21.53-64.12,34.29-71.17,37.69l-.13.07a12.39,12.39,0,0,0-1.24.8l-.16.12-.69.46c-3.18,2.15-3.44,2.33-13.11,6.11l-.24.1-.27,0a14.05,14.05,0,0,1-1.95.12,34.06,34.06,0,0,1-8.79-1.51l-.26-.07-11.45-2.71a339.41,339.41,0,0,0-70.17-8.06h0a330.25,330.25,0,0,0-93.07,12.37,4,4,0,0,0-2.82,4.78,17,17,0,0,1,.44,4.1l-.53,58.25c0,.12,0,.24,0,.36L296.11,615a4,4,0,0,0,4,4.06,4.16,4.16,0,0,0,1.51-.28,235.21,235.21,0,0,1,88.59-16.27,247.11,247.11,0,0,1,82.33,15.1,4.4,4.4,0,0,1,1.29.75l.75.62a4.18,4.18,0,0,1,1.21,1.66l4.84,11.83a20.44,20.44,0,0,0,4.65,6.92l.12.12,24.5,22.1c3.09,3,5.34,5.15,11.15,5.31l.6,0c8.62.29,25,.85,37.58,1.45h.15a3.6,3.6,0,0,0,1-.11l1.68-.41h0a123.49,123.49,0,0,0,16.49-5.24,4,4,0,0,0,1.34-6.49c-4.58-4.75-9.41-9.35-14.38-13.68a4,4,0,0,0-2.6-1,3,3,0,0,0-.52,0l-4.19.51a4.9,4.9,0,0,1-.77,0,5.79,5.79,0,0,1-5-3l-3.49-6.17a5,5,0,0,1,1.9-6.79l78.77-44.39a12.88,12.88,0,0,0,4.88-17.52,12.9,12.9,0,0,0-11.09-6.54,12.53,12.53,0,0,0-5.33,1.11l-.41.2-.66.39L564.42,589,562,584.74l2.09-1.2,50.39-28.41.62-.34a3.07,3.07,0,0,0,.43-.26,12.86,12.86,0,0,0-3.89-22.94,13.15,13.15,0,0,0-3.35-.47,12.62,12.62,0,0,0-5.33,1.11l-.39.2-.3.18a2.91,2.91,0,0,1-.3.17l-52.55,29.64-2.41-4.22,2.11-1.22,50.39-28.41.46-.25.19-.1.4-.25A12.86,12.86,0,0,0,588,505.67a4.14,4.14,0,0,0-.55.29,6,6,0,0,1-.52.31l-52.48,29.59-2.4-4.22,2.1-1.2L584.54,502l.74-.41a2.39,2.39,0,0,0,.34-.21,12.9,12.9,0,0,0,5-7.1A12.86,12.86,0,0,0,572,479.67ZM274.38,522a13.13,13.13,0,0,0-4.21,2.76,13,13,0,0,0-3.77,7.83,4.15,4.15,0,0,0,0,.61c0,.21,0,.41,0,.61l-.56,60.25L261,594V591.6l.53-57.84c0-.21,0-.4,0-.6a4.28,4.28,0,0,0,0-.62,12.87,12.87,0,0,0-12.69-11.76,12.84,12.84,0,0,0-9.12,3.68,12.86,12.86,0,0,0-3.79,7.84,4.1,4.1,0,0,0,0,.5c0,.24,0,.48,0,.72l-.56,60.26-4.86,0v-2.41l.54-57.84c0-.25,0-.49,0-.73s0-.33,0-.5a12.85,12.85,0,0,0-12.7-11.75A12.88,12.88,0,0,0,205.43,532c0,.17,0,.34,0,.5s0,.48,0,.73l-.55,60.25-4.86,0V591l.53-57.83c0-.24,0-.48,0-.72a4.34,4.34,0,0,0,0-.51,12.86,12.86,0,0,0-25.67,1c-.41,44-2.3,72.74-2.87,80.48v.11a10.41,10.41,0,0,0,.08,1.53l.07,1c.28,3.83.3,4.15-1.24,14.37l0,.29-.1.25c-1.07,2.73-4.07,6.29-6.57,8.62l-.19.19L156,648.38A334.86,334.86,0,0,0,78.21,792a3.81,3.81,0,0,0-.12.95,4,4,0,0,0,2.85,3.89,17.46,17.46,0,0,1,3.77,1.66l69.77,41.07a4,4,0,0,0,2,.56,4.22,4.22,0,0,0,1.77-.39,4,4,0,0,0,2.25-3C169.09,779.27,199,726.47,244.78,688a4.19,4.19,0,0,1,1.32-.77l.9-.34a4.21,4.21,0,0,1,2-.22l12.67,1.72a22.55,22.55,0,0,0,2.58.19,21,21,0,0,0,5.73-.76l.18-.05,31.37-10.21c4.13-1.17,7.12-2,10.22-7.08.47-.77,11.81-19,20.29-32.28a3.92,3.92,0,0,0,.48-1.06l.46-1.63a122.63,122.63,0,0,0,3.7-16.89,4,4,0,0,0-4-4.52,4.36,4.36,0,0,0-1,.12c-6.42,1.59-12.82,3.49-19,5.62a4.06,4.06,0,0,0-2.39,2.22L308.69,626a5.86,5.86,0,0,1-5.46,3.57l-7.09-.07a5,5,0,0,1-4.94-5l.31-32.89c0-.12,0-.24,0-.37l.52-57.15a12.87,12.87,0,0,0-12.73-13A13.13,13.13,0,0,0,274.38,522ZM72.51,801.28a12.86,12.86,0,0,0-4.32,22.85,3.12,3.12,0,0,0,.49.31l.57.32,51.93,30.56-2.46,4.19-2.09-1.21L66.71,828.92a4.87,4.87,0,0,1-.45-.27,3.6,3.6,0,0,0-.54-.31,12.71,12.71,0,0,0-5.31-1.2,12.42,12.42,0,0,0-3.36.41,12.85,12.85,0,0,0-4.31,22.86,4.66,4.66,0,0,0,.47.3l.58.33,10.69,6.29L92.82,874l.13.08,12.77,7.51-2.46,4.19-2.09-1.21L51.29,855.22l-.55-.33a3.72,3.72,0,0,0-.48-.27,12.88,12.88,0,0,0-16.52,5.13,12.8,12.8,0,0,0,3.54,16.94l.43.28.62.34,51.92,30.55-2.44,4.2-2.1-1.21-49.8-29.3-.66-.41c-.14-.08-.28-.16-.43-.23a12.7,12.7,0,0,0-5.31-1.22,13.23,13.23,0,0,0-3.37.41,12.86,12.86,0,0,0-3.3,23.53c38.77,22.82,63.7,39.54,68.31,42.66l.13.09a12.77,12.77,0,0,0,1.28.65l.21.1.75.36c3.45,1.66,3.73,1.8,11.84,8.25l.22.18.18.22c1.82,2.28,3.41,6.66,4.18,10a2.5,2.5,0,0,0,.07.26l3.39,11.26A334.84,334.84,0,0,0,199,1116.7a4,4,0,0,0,2.76,1.14,4,4,0,0,0,2.8-1.1,17,17,0,0,1,3.31-2.43l70.42-40a4,4,0,0,0,.51-6.64c-45.46-36.14-76.27-88.43-86.74-147.29a4.51,4.51,0,0,1,0-1.51l.14-.91a4.29,4.29,0,0,1,.84-1.9l7.8-10.11a20.53,20.53,0,0,0,3.66-7.49s0-.11.05-.17l6.82-32.29c1-4.16,1.78-7.18-1-12.36-.09-.16-10.51-19.53-17.87-33.72a3.93,3.93,0,0,0-.65-.92l-1.21-1.26a124.91,124.91,0,0,0-12.79-11.63,4.07,4.07,0,0,0-3.7-.61,4,4,0,0,0-2.59,2.71c-1.81,6.33-3.36,12.82-4.63,19.28a4,4,0,0,0,.74,3.19l2.55,3.4a5.84,5.84,0,0,1,.37,6.5l-3.6,6.12a5,5,0,0,1-4.36,2.45,5,5,0,0,1-2.47-.69L82.27,802.64a12.78,12.78,0,0,0-9.76-1.36Zm207.7,230.33a4.49,4.49,0,0,0-1,.11l-1.74.43h0a124.89,124.89,0,0,0-16.44,5.27,4,4,0,0,0-1.32,6.49c4.57,4.73,9.42,9.32,14.4,13.65a4,4,0,0,0,2.6,1l.54,0,4.16-.52c.3,0,.57,0,.81,0a5.8,5.8,0,0,1,5,3l3.5,6.16a5,5,0,0,1-1.88,6.8l-78.64,44.61a12.86,12.86,0,0,0,6.24,24,12.75,12.75,0,0,0,5.37-1.12,3.68,3.68,0,0,0,.44-.23l.62-.37,52.43-29.75,2.36,4.25-2.08,1.19-50.26,28.54c-.2.11-.4.22-.61.32a5.09,5.09,0,0,0-.5.3,12.87,12.87,0,0,0,4,22.93,13.28,13.28,0,0,0,3.31.46,12.7,12.7,0,0,0,5.36-1.12,3.29,3.29,0,0,0,.52-.29c.17-.1.33-.2.54-.31l10.8-6.13.45-.26,41.15-23.36,2.41,4.22-2.09,1.21-50.36,28.58-.52.29a3.5,3.5,0,0,0-.49.29,12.86,12.86,0,0,0,4,22.93,12.63,12.63,0,0,0,3.29.47,13,13,0,0,0,5.38-1.13l.39-.2.67-.4,52.42-29.75,2.36,4.24-2.06,1.2-50.29,28.54-.59.32a3.5,3.5,0,0,0-.49.29,12.86,12.86,0,0,0,13.72,21.72c38.25-21.7,64.07-34.49,71.07-37.89l.19-.1a12.13,12.13,0,0,0,1.16-.76l.19-.14.69-.46c3.14-2.15,3.4-2.32,13.07-6.15l.24-.1.28,0a13.18,13.18,0,0,1,2-.12,34.28,34.28,0,0,1,8.76,1.49l.25.07,11.45,2.68a339.38,339.38,0,0,0,69.23,7.84,330.09,330.09,0,0,0,94-12.62,4,4,0,0,0,2.81-4.78,18,18,0,0,1-.45-4.11l.37-58.23a2.3,2.3,0,0,0,0-.37l.14-22.36a4,4,0,0,0-1.75-3.35,4.06,4.06,0,0,0-2.23-.7,4.22,4.22,0,0,0-1.52.28A235.09,235.09,0,0,1,448.86,1097a246.74,246.74,0,0,1-81.65-14.85,4.53,4.53,0,0,1-1.34-.76l-.71-.58a4.41,4.41,0,0,1-1.24-1.68l-4.87-11.82a20.59,20.59,0,0,0-4.66-6.9.49.49,0,0,0-.13-.12l-24.56-22c-3.1-3-5.35-5.14-11.15-5.28l-.85,0c-14.92-.45-28.19-.93-37.35-1.33Z" transform="translate(-16.5 -461.7)"/><path class="cls-5" d="M680.64,844.27a4,4,0,0,0-2.25,3c-8.72,56.9-38.43,109.29-83.68,147.52a4.38,4.38,0,0,1-1.35.78l-.83.32a4.19,4.19,0,0,1-1.57.27,4.07,4.07,0,0,1-.5,0l-12.67-1.68a18.08,18.08,0,0,0-2.54-.18,20.48,20.48,0,0,0-5.77.77l-.17,0L538,1005.41c-4.12,1.18-7.11,2.07-10.14,7l-.34.55c-4.53,7.34-13.14,21.25-19.9,31.87a3.93,3.93,0,0,0-.47,1c-.18.61-.4,1.38-.47,1.68h0a124,124,0,0,0-3.64,16.9,4,4,0,0,0,1.33,3.5,3.93,3.93,0,0,0,2.62,1,3.56,3.56,0,0,0,1-.12c6.37-1.6,12.76-3.51,19-5.68a4,4,0,0,0,2.38-2.23L531,1057a5.83,5.83,0,0,1,5.44-3.58l7.12,0a5,5,0,0,1,4.93,5l-.21,32.88a2.23,2.23,0,0,0,0,.37l-.37,57.17a12.86,12.86,0,0,0,25.66,1.38,4.17,4.17,0,0,0,0-.5v-.72l.38-60.26,4.86.05v2.72l-.36,57.51c0,.24,0,.48,0,.72a2.9,2.9,0,0,0,0,.51,12.86,12.86,0,0,0,25.6.17,3.88,3.88,0,0,0,0-.59c0-.13,0-.27,0-.41v-.25c0-2.6.08-12.44.08-12.44s0-.65,0-1.71l.2-30.47v-.78l.1-14.82h4.85v2.42l-.37,57.84c0,.24,0,.49,0,.73a4,4,0,0,0,0,.49,12.85,12.85,0,0,0,25.59.16,4.7,4.7,0,0,0,0-.53c0-.22,0-.44,0-.68l.38-60.26,4.86,0v2.4l-.37,57.83c0,.2,0,.41,0,.62a4.14,4.14,0,0,0,0,.61,12.86,12.86,0,0,0,25.67-1c.29-45,2.25-75,2.64-80.49v-.1a9.11,9.11,0,0,0-.06-1.35l-.1-1.21c-.29-3.87-.31-4.1,1.21-14.41l0-.26.09-.25c1.07-2.73,4.06-6.3,6.55-8.63l.19-.19,8-8.58a335,335,0,0,0,76.87-142,4,4,0,0,0-2.67-4.83,17.94,17.94,0,0,1-3.66-1.65l-69.78-41.34a3.91,3.91,0,0,0-2-.56A4,4,0,0,0,680.64,844.27Zm-45.4-277.09a17.77,17.77,0,0,1-3.35,2.45l-70.54,39.74a4,4,0,0,0-2,3.18,4,4,0,0,0,1.5,3.46c45.37,36.26,76,88.65,86.33,147.52a4.26,4.26,0,0,1,0,1.51L647,766a4.35,4.35,0,0,1-.83,1.89L638.31,778a20.5,20.5,0,0,0-3.67,7.48,1,1,0,0,0,0,.17l-6.92,32.26c-1,4.16-1.79,7.19,1,12.37.08.16,10.46,19.59,17.76,33.76a4,4,0,0,0,.68,1l.38.39.78.82a125,125,0,0,0,12.63,11.58,4,4,0,0,0,2.41.83,3.82,3.82,0,0,0,1.29-.2,4,4,0,0,0,2.61-2.7c1.84-6.36,3.42-12.87,4.69-19.34a4,4,0,0,0-.72-3.19l-2.42-3.22a5.85,5.85,0,0,1-.34-6.52l3.61-6.09a5,5,0,0,1,4.35-2.45,4.94,4.94,0,0,1,2.48.7l77.79,46.08a12.86,12.86,0,0,0,14.12-21.46,4,4,0,0,0-.44-.27l-.6-.34-51.85-30.7,2.46-4.19,2.1,1.21,49.76,29.47.43.26.24.15.39.21a12.5,12.5,0,0,0,5.34,1.22,12.9,12.9,0,0,0,11.2-6.3A12.86,12.86,0,0,0,786.3,834l-.35-.23-.69-.39-51.84-30.71,2.46-4.19,2.09,1.22,49.77,29.47.59.37a2.77,2.77,0,0,0,.48.26,12.79,12.79,0,0,0,5.33,1.22,13,13,0,0,0,3.33-.4,12.87,12.87,0,0,0,4.37-22.85,3.42,3.42,0,0,0-.4-.26l-.13-.07c-.15-.09-.31-.17-.51-.3L749,776.4l2.48-4.18,2.08,1.21,49.8,29.5c.19.1.37.22.56.34a3.37,3.37,0,0,0,.46.25,12.65,12.65,0,0,0,5.34,1.23,12.9,12.9,0,0,0,11.2-6.32,12.86,12.86,0,0,0-4.51-17.61c-37.74-22.34-61.74-38.45-68.19-42.85l-.15-.09a11.73,11.73,0,0,0-1.34-.69l-.88-.42c-3.45-1.68-3.73-1.82-11.82-8.29l-.22-.18-.17-.21c-1.83-2.31-3.4-6.69-4.15-10a2.68,2.68,0,0,0-.07-.27L726,706.55a334.59,334.59,0,0,0-85.23-139.29,4,4,0,0,0-5.53-.08ZM572,463.35c-38.17,21.54-64.12,34.3-71.17,37.7l-.13.06a12.25,12.25,0,0,0-1.24.81l-.16.12-.69.46c-3.18,2.15-3.44,2.32-13.11,6.11l-.24.1-.27,0a12.76,12.76,0,0,1-1.95.11,33.64,33.64,0,0,1-8.79-1.51l-.26-.07-11.45-2.71a340.08,340.08,0,0,0-70.17-8.05h0a330.25,330.25,0,0,0-93.07,12.37,4,4,0,0,0-2.82,4.77,17,17,0,0,1,.44,4.11L296.34,576c0,.12,0,.25,0,.37l-.21,22.35a4,4,0,0,0,4,4.06,4.16,4.16,0,0,0,1.51-.28,235.21,235.21,0,0,1,88.59-16.27,247.11,247.11,0,0,1,82.33,15.1,4.19,4.19,0,0,1,1.29.75l.75.62a4.18,4.18,0,0,1,1.21,1.66l4.84,11.83a20.44,20.44,0,0,0,4.65,6.92.63.63,0,0,0,.12.11l24.5,22.11c3.09,3,5.34,5.15,11.15,5.31l.6,0c8.62.28,25,.85,37.58,1.45h.15a4,4,0,0,0,1-.11l1.68-.42h0a123.15,123.15,0,0,0,16.49-5.23,4,4,0,0,0,1.34-6.49c-4.58-4.75-9.41-9.36-14.38-13.68a4,4,0,0,0-2.6-1,4.53,4.53,0,0,0-.52,0l-4.19.51a6.51,6.51,0,0,1-.77,0,5.79,5.79,0,0,1-5-3l-3.49-6.17a5,5,0,0,1,1.9-6.79l78.77-44.4a12.88,12.88,0,0,0,4.88-17.52A12.85,12.85,0,0,0,618,542.47a3.17,3.17,0,0,0-.41.21l-.66.39-52.49,29.6L562,568.43l2.09-1.2,50.39-28.41.62-.34a4.45,4.45,0,0,0,.43-.26,12.86,12.86,0,0,0-3.89-22.94,13.15,13.15,0,0,0-3.35-.47,12.62,12.62,0,0,0-5.33,1.11,3.6,3.6,0,0,0-.39.2l-.3.18a2.91,2.91,0,0,1-.3.17l-52.55,29.64-2.41-4.23,2.11-1.21,50.39-28.42L600,512l.19-.11a3.26,3.26,0,0,0,.4-.24A12.86,12.86,0,0,0,588,489.36a4.14,4.14,0,0,0-.55.29L587,490l-52.48,29.59-2.4-4.22,2.1-1.21,50.36-28.4.74-.4.34-.21a12.9,12.9,0,0,0,5-7.1,12.73,12.73,0,0,0-1.19-9.76,12.87,12.87,0,0,0-17.52-4.9ZM274.38,505.68a13.13,13.13,0,0,0-4.21,2.76,13,13,0,0,0-3.77,7.83,4.15,4.15,0,0,0,0,.61c0,.2,0,.41,0,.61l-.56,60.25-4.86,0v-2.4l.53-57.85c0-.2,0-.4,0-.6a4.14,4.14,0,0,0,0-.61,12.87,12.87,0,0,0-12.69-11.76,12.73,12.73,0,0,0-9.12,3.68,12.83,12.83,0,0,0-3.79,7.83,4.35,4.35,0,0,0,0,.51c0,.24,0,.48,0,.72l-.56,60.26-4.86-.05V575l.54-57.84c0-.25,0-.49,0-.73s0-.34,0-.5a12.85,12.85,0,0,0-12.7-11.75,12.88,12.88,0,0,0-12.91,11.51c0,.17,0,.33,0,.5s0,.48,0,.72l-.55,60.26-4.86,0v-2.41l.53-57.84c0-.24,0-.48,0-.72a4.17,4.17,0,0,0,0-.5,12.86,12.86,0,0,0-25.67,1c-.41,44-2.3,72.73-2.87,80.48v.11a10.26,10.26,0,0,0,.08,1.52l.07,1c.28,3.83.3,4.14-1.24,14.37l0,.28-.1.26c-1.07,2.72-4.07,6.29-6.57,8.62l-.19.18L156,632.06A335,335,0,0,0,78.21,775.67a3.81,3.81,0,0,0-.12,1,4,4,0,0,0,2.85,3.88,18,18,0,0,1,3.77,1.67l69.77,41.07a4,4,0,0,0,3.77.16,4,4,0,0,0,2.25-3C169.09,763,199,710.16,244.78,671.71a4.61,4.61,0,0,1,1.32-.77l.9-.33a4.12,4.12,0,0,1,1.52-.26,3,3,0,0,1,.52,0l12.67,1.72a22.53,22.53,0,0,0,2.58.18,20.59,20.59,0,0,0,5.73-.75l.18,0,31.37-10.21c4.13-1.17,7.12-2,10.22-7.08.47-.77,11.81-19.05,20.29-32.28a4.06,4.06,0,0,0,.48-1.06l.46-1.63a122.63,122.63,0,0,0,3.7-16.89,4,4,0,0,0-4-4.52,3.86,3.86,0,0,0-1,.11c-6.42,1.6-12.82,3.49-19,5.63a4,4,0,0,0-2.39,2.22l-1.66,3.88a5.86,5.86,0,0,1-5.46,3.58l-7.09-.07a5,5,0,0,1-4.94-5l.31-32.89c0-.12,0-.25,0-.37l.52-57.15a12.87,12.87,0,0,0-17.67-12.05ZM72.51,785a12.87,12.87,0,0,0-4.32,22.86,4.07,4.07,0,0,0,.49.31c.17.09.34.18.57.32L121.18,839l-2.46,4.19-2.09-1.2L66.71,812.61a4.92,4.92,0,0,1-.45-.28,4.68,4.68,0,0,0-.54-.3,12.86,12.86,0,0,0-13,22.07,3.31,3.31,0,0,0,.47.29l.58.33L64.48,841l28.34,16.66a.57.57,0,0,0,.13.08l12.77,7.52-2.46,4.19-2.09-1.21L51.29,838.91l-.55-.34a2.77,2.77,0,0,0-.48-.26,12.88,12.88,0,0,0-16.52,5.13,12.8,12.8,0,0,0,3.54,16.94,3.87,3.87,0,0,0,.43.27l.62.35,51.92,30.55-2.44,4.2-2.1-1.21-49.8-29.3-.66-.41a3.62,3.62,0,0,0-.43-.24,12.86,12.86,0,0,0-12,22.73c38.77,22.81,63.7,39.54,68.31,42.66l.13.08a10.23,10.23,0,0,0,1.28.66l.21.1.75.36c3.45,1.66,3.73,1.8,11.84,8.24l.22.18.18.23c1.82,2.27,3.41,6.66,4.18,10a2.5,2.5,0,0,0,.07.26l3.39,11.25A334.87,334.87,0,0,0,199,1100.39a4,4,0,0,0,2.76,1.13,4,4,0,0,0,2.8-1.09,17.05,17.05,0,0,1,3.31-2.44l70.42-39.94a4,4,0,0,0,.51-6.65c-45.46-36.13-76.27-88.43-86.74-147.28a4.51,4.51,0,0,1,0-1.51l.14-.91a4.29,4.29,0,0,1,.84-1.9l7.8-10.12a20.41,20.41,0,0,0,3.66-7.48c0-.06,0-.12.05-.17l6.82-32.29c1-4.16,1.78-7.19-1-12.36-.09-.16-10.51-19.53-17.87-33.72a3.73,3.73,0,0,0-.65-.92l-1.21-1.26a124.91,124.91,0,0,0-12.79-11.63,4,4,0,0,0-2.39-.82,4.22,4.22,0,0,0-1.31.21,4,4,0,0,0-2.59,2.71c-1.81,6.33-3.36,12.82-4.63,19.28a4,4,0,0,0,.74,3.19l2.55,3.39a5.86,5.86,0,0,1,.37,6.51l-3.6,6.12a5,5,0,0,1-4.36,2.44,4.88,4.88,0,0,1-2.47-.68L82.27,786.33a12.87,12.87,0,0,0-6.39-1.78A13.29,13.29,0,0,0,72.51,785Zm207.7,230.34a3.93,3.93,0,0,0-1,.11l-1.74.43h0a126.41,126.41,0,0,0-16.44,5.27,4,4,0,0,0-1.32,6.5c4.57,4.73,9.42,9.32,14.4,13.64a4,4,0,0,0,2.6,1l.54,0,4.16-.52a6,6,0,0,1,.81,0,5.81,5.81,0,0,1,5,3l3.5,6.17a5,5,0,0,1-1.88,6.8l-78.64,44.61a12.86,12.86,0,0,0,6.24,24,12.75,12.75,0,0,0,5.37-1.12l.44-.23.62-.37,52.43-29.75,2.36,4.24-2.08,1.2-50.26,28.54-.61.32a2.88,2.88,0,0,0-.5.3,12.88,12.88,0,0,0,7.29,23.39,12.56,12.56,0,0,0,5.36-1.13,3.25,3.25,0,0,0,.52-.28c.17-.1.33-.2.54-.31l10.8-6.13.45-.27,41.15-23.35,2.41,4.22-2.09,1.21-50.36,28.58c-.17.1-.35.2-.52.28a4.94,4.94,0,0,0-.49.3,12.86,12.86,0,0,0,4,22.93,12.82,12.82,0,0,0,8.67-.67,3.6,3.6,0,0,0,.39-.2l.67-.39,52.42-29.76,2.36,4.25-2.06,1.2-50.29,28.54c-.19.11-.39.21-.59.31a4.94,4.94,0,0,0-.49.3,12.85,12.85,0,0,0,13.72,21.71c38.25-21.7,64.07-34.48,71.07-37.88l.19-.1c.31-.17.67-.42,1.16-.76l.19-.14.69-.47c3.14-2.14,3.4-2.32,13.07-6.14l.24-.1.28,0a12,12,0,0,1,2-.12,34.28,34.28,0,0,1,8.76,1.49l.25.07,11.45,2.67a338.69,338.69,0,0,0,69.23,7.85,329.74,329.74,0,0,0,94-12.63,4,4,0,0,0,2.81-4.77,18,18,0,0,1-.45-4.11l.37-58.24a2.17,2.17,0,0,0,0-.36l.14-22.37a4,4,0,0,0-5.5-3.76,235.28,235.28,0,0,1-89.23,16.51,247,247,0,0,1-81.65-14.85,4.53,4.53,0,0,1-1.34-.76l-.71-.59a4.26,4.26,0,0,1-1.24-1.68L359.05,1051a20.69,20.69,0,0,0-4.66-6.9l-.13-.12-24.56-22c-3.1-3-5.35-5.14-11.15-5.28l-.85,0c-14.92-.45-28.19-.92-37.35-1.33Z" transform="translate(-16.5 -461.7)"/><path class="cls-6" d="M515.06,790.64a8.92,8.92,0,1,1-8.91-8.92A8.91,8.91,0,0,1,515.06,790.64Zm8.09-25.93a8.92,8.92,0,1,0,8.92,8.92A8.9,8.9,0,0,0,523.15,764.71Zm17,17a8.92,8.92,0,1,0,8.91,8.92A8.92,8.92,0,0,0,540.17,781.72Zm-17,17a8.91,8.91,0,1,0,8.92,8.91A8.9,8.9,0,0,0,523.15,798.74ZM468.94,869.3a23.19,23.19,0,1,1,26-26A23.25,23.25,0,0,1,468.94,869.3Zm23-23a20.07,20.07,0,0,0-20.9-20,20.28,20.28,0,0,0-19.18,19.31,20,20,0,1,0,40.08.71Zm-20.05-16.66a16.67,16.67,0,1,0,16.67,16.66A16.67,16.67,0,0,0,471.92,829.63Zm-81.81,19.76a23.18,23.18,0,1,1-26-26A23.26,23.26,0,0,1,390.11,849.39Zm-3-3.76a20,20,0,1,0-20,20.8A20,20,0,0,0,387.15,845.63Zm-20-15.92a16.67,16.67,0,1,0,16.61,18.51A16.68,16.68,0,0,0,367.1,829.71Zm-55.61-41.79-11.05-6.37a3.14,3.14,0,0,0-4.69,2.71V797a3.14,3.14,0,0,0,4.7,2.72l11-6.39A3.12,3.12,0,0,0,311.49,787.92Zm14.73-21.41H313.47a3.13,3.13,0,0,0-2.7,4.7l6.38,11a3.12,3.12,0,0,0,5.41,0l6.37-11A3.14,3.14,0,0,0,326.22,766.51ZM344,784.23a3.12,3.12,0,0,0-4.68-2.71l-11,6.38a3.13,3.13,0,0,0,0,5.42l11,6.36A3.13,3.13,0,0,0,344,797ZM329,810l-6.37-11a3.13,3.13,0,0,0-5.42,0l-6.36,11a3.13,3.13,0,0,0,2.71,4.69h12.75A3.12,3.12,0,0,0,329,810Z" transform="translate(-16.5 -461.7)"/></g></svg>