<svg id="Слой_1" data-name="Слой 1" xmlns="http://www.w3.org/2000/svg" xmlns:xlink="http://www.w3.org/1999/xlink" viewBox="0 0 938.98 885.66"><defs><style>.cls-1{fill:url(#Оранжевый_желтый);}.cls-2{fill:#583a24;}.cls-3{fill:url(#Безымянный_градиент_3);}.cls-4{fill:url(#Оранжевый_желтый-2);}</style><linearGradient id="Оранжевый_желтый" x1="731.36" y1="130.41" x2="556.62" y2="1121.41" gradientUnits="userSpaceOnUse"><stop offset="0" stop-color="#fff448"/><stop offset="0.05" stop-color="#ffe442"/><stop offset="0.12" stop-color="#ffd13b"/><stop offset="0.2" stop-color="#ffc636"/><stop offset="0.28" stop-color="#ffc235"/><stop offset="0.67" stop-color="#f58b4e"/><stop offset="0.89" stop-color="#f06d4e"/><stop offset="1" stop-color="#ec574e"/></linearGradient><linearGradient id="Безымянный_градиент_3" x1="719.78" y1="187.92" x2="560.38" y2="1091.93" xlink:href="#Оранжевый_желтый"/><linearGradient id="Оранжевый_желтый-2" x1="246.66" y1="616.83" x2="1246.09" y2="625.92" xlink:href="#Оранжевый_желтый"/></defs><path class="cls-1" d="M895.52,703.94l-.1-.11-.79-.82-.44-.46a14.12,14.12,0,0,1-2.45-3.41c-8.28-16.09-20.21-38.43-20.32-38.63-5-9.25-3.39-15.83-2-21.11l.44-2.06c-2.95-7.5-1.6-13.07-.44-17.66l7.91-36.88.15-.62a33.19,33.19,0,0,1,6-12.14L888.1,564a268.12,268.12,0,0,0-57.44-113,14.61,14.61,0,0,1-4.33,2.83,153.26,153.26,0,0,1-20.4,6.49c-.32.09-1.25.31-2,.5a14.52,14.52,0,0,1-3.37.39h-.13l-.64,0c-14.37-.68-33.07-1.33-42.93-1.65l-.71,0c-10.35-.29-15.27-4.95-19.18-8.75l-28-25.27-.47-.45A33.37,33.37,0,0,1,701,413.78l-4.91-12a274,274,0,0,0-89.89-16.25h-2.57a262.9,262.9,0,0,0-49.25,4.64,14.74,14.74,0,0,1,.29,5.22,152.28,152.28,0,0,1-4.54,20.89l-.55,1.88a14.25,14.25,0,0,1-1.73,3.83c-9.72,15.18-22.6,35.93-23.17,36.88-5.55,9-12,10.94-17.3,12.42L471.49,482.9c-.15.06-.4.13-.65.2a33.43,33.43,0,0,1-9,1.21h-.31a32.5,32.5,0,0,1-4.18-.29l-12.89-1.76A272.29,272.29,0,0,0,370,583.13a161.25,161.25,0,0,1,14.21,13.11l1.45,1.51a14.46,14.46,0,0,1,2.35,3.3c8.36,16.11,20.34,38.38,20.45,38.57,5,9.26,3.43,15.83,2.1,21.11l-.44,2.14c2.93,7.44,1.6,13,.44,17.58l-7.79,36.91c-.05.2-.08.38-.13.57a33.56,33.56,0,0,1-6,12.21l-4.62,6a268.46,268.46,0,0,0,57.76,112.94,14.71,14.71,0,0,1,4.34-2.85,152.16,152.16,0,0,1,20.31-6.53c.35-.08,1.37-.35,2.18-.54a15,15,0,0,1,3.29-.37h.65c10.49.46,25.66,1,42.75,1.53l1,0c10.36.24,15.29,4.9,19.23,8.69l28.07,25.18c.18.16.33.3.46.44a33.35,33.35,0,0,1,7.58,11.21l4.95,12a273.55,273.55,0,0,0,89.17,16h2.57a264.1,264.1,0,0,0,50-4.77,14.49,14.49,0,0,1-.32-5.22,153.9,153.9,0,0,1,4.5-20.91c.08-.28.35-1.26.58-2a14.24,14.24,0,0,1,1.67-3.66c7.72-12.12,17.59-28.06,22.78-36.49l.39-.62c5.42-8.88,11.9-10.82,17.14-12.33l35.83-11.76.59-.18a33.83,33.83,0,0,1,9.08-1.26h.32A33.77,33.77,0,0,1,823,815l12.86,1.69A272.54,272.54,0,0,0,909.51,717,165.08,165.08,0,0,1,895.52,703.94ZM828,750l-12.78,6.78a2.22,2.22,0,0,1-2.54-.3l-91.56-55c-7.55-4.65-11.36-7.25-18.1-7.25l-126.56.1c-6.75,0-10.55,2.62-18.1,7.27l-91,55.18a2.19,2.19,0,0,1-2.53.31l-12.8-6.76a36.15,36.15,0,0,1-17.54-43l50.24-156.59a4.86,4.86,0,0,1,4.36-3.35,7.54,7.54,0,0,0,6.41-4.41l.62-1.36a15.43,15.43,0,0,1,12.62-9l41-3.75a19.29,19.29,0,0,1,18.34,9.33l4.21,7c.82,1.37,3.89,2.21,3.89,2.21l24.82,0a3,3,0,0,0,1.54-.41l4.48-2.63a2.62,2.62,0,0,1,1.36-.37l63-.06a2.83,2.83,0,0,1,1.36.37l4.48,2.62a3,3,0,0,0,1.54.42l24.81,0s3.07-.84,3.89-2.21l4.18-7.06A19.34,19.34,0,0,1,730,528.74l41,3.7a15.39,15.39,0,0,1,12.63,8.92l.62,1.37a7.66,7.66,0,0,0,2.6,3.08,7.56,7.56,0,0,0,3.82,1.3,4.9,4.9,0,0,1,4.38,3.36L845.48,707A36.16,36.16,0,0,1,828,750Z" transform="translate(-170.51 -206.67)"/><path class="cls-2" d="M457,493.24m487.06,178a4.69,4.69,0,0,0-2.62,3.53C931.29,741.07,896.68,802.1,844,846.63a5.27,5.27,0,0,1-1.57.9l-1,.38a5.18,5.18,0,0,1-1.83.31,3.81,3.81,0,0,1-.59,0l-14.75-1.95a22.68,22.68,0,0,0-3-.22,24,24,0,0,0-6.73.9l-.19.06-36.52,12c-4.8,1.38-8.28,2.41-11.82,8.19l-.39.64c-5.28,8.55-15.31,24.75-23.18,37.12a4.41,4.41,0,0,0-.54,1.19c-.21.7-.47,1.61-.56,1.95h0a144.34,144.34,0,0,0-4.25,19.68,4.68,4.68,0,0,0,4.6,5.25,4.35,4.35,0,0,0,1.19-.14c7.42-1.86,14.87-4.09,22.14-6.61a4.67,4.67,0,0,0,2.78-2.6l1.92-4.54a6.82,6.82,0,0,1,6.34-4.17l8.29.06a5.81,5.81,0,0,1,5.74,5.84l-.25,38.3c0,.14,0,.28,0,.42l-.42,66.59a15,15,0,0,0,29.87,1.61,5.78,5.78,0,0,0,0-.58c0-.27,0-.55,0-.84l.44-70.19,5.66.06v3.17l-.43,67c0,.27,0,.55,0,.84a5.86,5.86,0,0,0,0,.59,15,15,0,0,0,29.82.19,3.87,3.87,0,0,0,0-.68c0-.16,0-.32,0-.48v-.3c0-3,.1-14.48.1-14.48s0-.76,0-2l.23-35.49v-.91l.11-17.26h5.66v2.82l-.43,67.36c0,.29,0,.57,0,.86a5.42,5.42,0,0,0,0,.57,15,15,0,0,0,29.82.19c0-.19,0-.44,0-.62s0-.52,0-.79l.45-70.19,5.66,0v2.8L896,1026.8c0,.23,0,.47,0,.72a4.33,4.33,0,0,0,0,.72,15,15,0,0,0,14.82,13.64A15,15,0,0,0,925.92,1027c.33-52.46,2.61-87.31,3.07-93.76v-.1a10.91,10.91,0,0,0-.07-1.58l-.12-1.42c-.34-4.49-.36-4.76,1.41-16.77l0-.31.11-.29c1.24-3.18,4.72-7.34,7.62-10a2.39,2.39,0,0,0,.23-.22l9.35-10a390.29,390.29,0,0,0,89.53-165.34,4.69,4.69,0,0,0-3.1-5.61,21,21,0,0,1-4.27-1.93l-81.28-48.15a4.68,4.68,0,0,0-2.34-.66A4.89,4.89,0,0,0,944.06,671.27ZM891.18,348.54a20.8,20.8,0,0,1-3.9,2.84l-82.16,46.3a4.68,4.68,0,0,0-.62,7.73c52.84,42.23,88.55,103.25,100.55,171.82a5.2,5.2,0,0,1,0,1.76l-.19,1.09a5.08,5.08,0,0,1-1,2.2L894.76,594a24.17,24.17,0,0,0-4.28,8.72c0,.06,0,.12,0,.18l-8.06,37.58c-1.23,4.85-2.09,8.38,1.15,14.41.1.19,12.19,22.81,20.69,39.33a4.27,4.27,0,0,0,.79,1.1l.44.46.91.95a147.17,147.17,0,0,0,14.71,13.49,4.64,4.64,0,0,0,2.8,1,4.59,4.59,0,0,0,1.51-.24,4.7,4.7,0,0,0,3-3.14c2.14-7.41,4-15,5.47-22.54a4.73,4.73,0,0,0-.85-3.71l-2.81-3.75a6.82,6.82,0,0,1-.4-7.59l4.2-7.1a5.85,5.85,0,0,1,5.07-2.84,5.77,5.77,0,0,1,2.89.8l90.6,53.68a15,15,0,0,0,7.47,2.1,15.25,15.25,0,0,0,3.87-.47,15,15,0,0,0,5.11-26.62,3.36,3.36,0,0,0-.51-.32l-.71-.4-60.38-35.76,2.87-4.88,2.44,1.42,58,34.32.5.3.28.18a4.92,4.92,0,0,0,.45.24,14.75,14.75,0,0,0,6.22,1.43,15,15,0,0,0,9-27.08c-.13-.09-.26-.18-.4-.26l-.81-.46-60.38-35.76,2.86-4.88,2.44,1.41,58,34.33.69.43a6,6,0,0,0,.56.3,14.73,14.73,0,0,0,6.21,1.42,15,15,0,0,0,9-27.08,4.53,4.53,0,0,0-.46-.3l-.16-.09c-.18-.1-.35-.19-.59-.34l-60.4-35.76,2.9-4.87,2.42,1.41,58,34.36c.22.12.43.25.65.39a2.86,2.86,0,0,0,.54.3,14.71,14.71,0,0,0,6.22,1.43,15,15,0,0,0,13.05-7.35,15,15,0,0,0-5.26-20.52c-44-26-71.9-44.78-79.42-49.91l-.17-.11a15.2,15.2,0,0,0-1.57-.79l-1-.5c-4-1.95-4.35-2.11-13.77-9.66l-.26-.2-.19-.25c-2.13-2.69-4-7.79-4.84-11.65,0-.1,0-.21-.08-.31l-3.92-13.13a390.09,390.09,0,0,0-99.27-162.24,4.69,4.69,0,0,0-3.23-1.32A4.63,4.63,0,0,0,891.18,348.54ZM817.48,227.6c-44.46,25.08-74.69,40-82.89,43.91l-.16.07a13.45,13.45,0,0,0-1.44.94l-.19.14-.8.54c-3.7,2.5-4,2.71-15.27,7.12l-.29.11-.31.05a15.36,15.36,0,0,1-2.27.13,39.4,39.4,0,0,1-10.24-1.76l-.3-.08L690,275.61a395.77,395.77,0,0,0-81.73-9.38h0a384.72,384.72,0,0,0-108.41,14.41,4.68,4.68,0,0,0-3.28,5.56,20.59,20.59,0,0,1,.51,4.78l-.62,67.84c0,.14,0,.29,0,.43l-.24,26a4.68,4.68,0,0,0,4.64,4.73,4.85,4.85,0,0,0,1.75-.33,273.83,273.83,0,0,1,103.19-18.94,287.62,287.62,0,0,1,95.89,17.58,5,5,0,0,1,1.5.87l.87.73a5,5,0,0,1,1.42,1.93l5.63,13.78a23.79,23.79,0,0,0,5.41,8.06l.14.13,28.55,25.75c3.59,3.48,6.21,6,13,6.19l.7,0c10,.33,29.08,1,43.77,1.68h.18a4.78,4.78,0,0,0,1.13-.13l2-.49h0a142.76,142.76,0,0,0,19.21-6.09,4.68,4.68,0,0,0,1.56-7.56c-5.33-5.54-11-10.9-16.75-15.93a4.64,4.64,0,0,0-3-1.15,3.16,3.16,0,0,0-.61,0l-4.87.59c-.3,0-.6.05-.9.05a6.78,6.78,0,0,1-5.89-3.5l-4.06-7.19a5.81,5.81,0,0,1,2.22-7.9l91.74-51.71a15,15,0,0,0,5.69-20.41,15.06,15.06,0,0,0-12.92-7.61,14.8,14.8,0,0,0-6.22,1.29,5.06,5.06,0,0,0-.46.24l-.77.45-61.15,34.48L805.93,350l2.43-1.4,58.69-33.09.72-.39c.18-.1.35-.2.51-.31a15,15,0,0,0-4.54-26.71,15.18,15.18,0,0,0-3.9-.56,14.78,14.78,0,0,0-6.2,1.3,4,4,0,0,0-.46.23l-.35.21-.35.2L791.27,324l-2.8-4.92,2.45-1.41,58.7-33.1.53-.29.23-.12c.15-.08.31-.18.46-.28a15,15,0,0,0-14.65-26,4.77,4.77,0,0,0-.63.34l-.61.36-61.12,34.47-2.8-4.92,2.45-1.4,58.65-33.08.86-.47.4-.25a15,15,0,0,0-15.91-25.34ZM470.87,276.9a15,15,0,0,0-9.29,12.33,4.33,4.33,0,0,0,0,.72c0,.24,0,.47,0,.71l-.65,70.18-5.66-.06V358l.63-67.38c0-.23,0-.46,0-.7a5.63,5.63,0,0,0,0-.71,15,15,0,0,0-14.79-13.7,15,15,0,0,0-10.62,4.28,15,15,0,0,0-4.41,9.13,5.83,5.83,0,0,0,0,.59c0,.28,0,.56,0,.84l-.64,70.18-5.67-.05v-2.81l.63-67.37c0-.29,0-.57,0-.85a3.75,3.75,0,0,0,0-.58,15,15,0,0,0-14.79-13.68A14.79,14.79,0,0,0,395,279.45a15,15,0,0,0-4.41,9.12,5.83,5.83,0,0,0,0,.59c0,.28,0,.56,0,.84l-.64,70.18-5.66-.05v-2.81l.62-67.37c0-.28,0-.56,0-.84a3.9,3.9,0,0,0,0-.59,15,15,0,0,0-29.9,1.16c-.47,51.28-2.67,84.71-3.34,93.74v.13a12,12,0,0,0,.09,1.77l.09,1.2c.32,4.46.34,4.82-1.45,16.73l-.05.33-.12.3c-1.24,3.18-4.74,7.33-7.65,10l-.22.22-9.39,10c-43.7,47.75-75,105.58-90.55,167.26a4.57,4.57,0,0,0-.15,1.11,4.68,4.68,0,0,0,3.32,4.52,20.41,20.41,0,0,1,4.4,1.94l81.26,47.84a4.73,4.73,0,0,0,2.33.65,4.8,4.8,0,0,0,2.06-.46,4.67,4.67,0,0,0,2.62-3.53c10-66.88,44.88-128.38,98.17-173.15a5.19,5.19,0,0,1,1.54-.9l1-.38a4.86,4.86,0,0,1,1.77-.31,6,6,0,0,1,.61,0l14.76,2a25.35,25.35,0,0,0,3,.21,24.41,24.41,0,0,0,6.68-.87l.2-.07,36.54-11.89c4.81-1.36,8.3-2.37,11.91-8.24.55-.9,13.75-22.18,23.63-37.6a5.06,5.06,0,0,0,.56-1.23l.54-1.9a143.85,143.85,0,0,0,4.31-19.68,4.68,4.68,0,0,0-4.61-5.26,4.26,4.26,0,0,0-1.17.14c-7.48,1.85-14.94,4.06-22.16,6.54a4.68,4.68,0,0,0-2.78,2.59L510.84,398a6.85,6.85,0,0,1-6.37,4.16l-8.26-.08a5.81,5.81,0,0,1-5.75-5.86l.36-38.31c0-.14,0-.28,0-.43l.6-66.56a15,15,0,0,0-14.83-15.12A15,15,0,0,0,470.87,276.9ZM235.74,602.2A15,15,0,0,0,225,620.45a15,15,0,0,0,5.69,8.37,5,5,0,0,0,.58.35l.66.38,60.49,35.59L289.57,670l-2.43-1.41L229,634.4c-.18-.1-.35-.21-.52-.32a3.94,3.94,0,0,0-.63-.36,14.84,14.84,0,0,0-10.1-.92,15,15,0,0,0-5,26.63,4.53,4.53,0,0,0,.55.34l.67.38,12.46,7.33,33,19.42.15.09,14.87,8.75-2.86,4.88-2.44-1.41L211,665l-.64-.39a3.81,3.81,0,0,0-.56-.31,14.65,14.65,0,0,0-6.16-1.41,15.27,15.27,0,0,0-3.93.48,15,15,0,0,0-5,26.64,5.19,5.19,0,0,0,.5.31l.71.4,60.48,35.59-2.85,4.89-2.44-1.41-58-34.12-.77-.48a4.82,4.82,0,0,0-.5-.27,15,15,0,0,0-14,26.46c45.16,26.58,74.21,46.05,79.57,49.69l.16.1a11.83,11.83,0,0,0,1.48.76l.25.12.87.42c4,1.94,4.34,2.09,13.78,9.6l.26.21.21.26c2.13,2.65,4,7.76,4.87,11.64,0,.1.05.2.08.3l3.95,13.11c19.57,61.7,54.05,117.71,99.74,162a4.68,4.68,0,0,0,6.47,0,20.44,20.44,0,0,1,3.86-2.84l82-46.52a4.68,4.68,0,0,0,.6-7.74c-52.95-42.08-88.83-103-101-171.55a5.2,5.2,0,0,1,0-1.76l.17-1.06a5,5,0,0,1,1-2.21l9.08-11.78a23.83,23.83,0,0,0,4.27-8.72,1.46,1.46,0,0,0,.05-.2l7.95-37.61c1.21-4.84,2.07-8.37-1.19-14.39-.1-.19-12.23-22.75-20.81-39.28a4.73,4.73,0,0,0-.76-1.07l-1.41-1.47a146.62,146.62,0,0,0-14.9-13.55,4.67,4.67,0,0,0-2.77-.94,4.45,4.45,0,0,0-1.53.24,4.67,4.67,0,0,0-3,3.15c-2.11,7.38-3.92,14.93-5.39,22.46a4.68,4.68,0,0,0,.85,3.72l3,4A6.81,6.81,0,0,1,350,648l-4.2,7.12a5.83,5.83,0,0,1-5.08,2.85,5.75,5.75,0,0,1-2.87-.8l-90.75-53.42a14.92,14.92,0,0,0-7.43-2.08A15.14,15.14,0,0,0,235.74,602.2ZM477.66,870.48a5.24,5.24,0,0,0-1.11.12l-2,.5h0a144.9,144.9,0,0,0-19.15,6.14,4.69,4.69,0,0,0-1.54,7.57c5.33,5.51,11,10.85,16.78,15.89a4.7,4.7,0,0,0,3,1.14q.31,0,.63,0l4.85-.61a8.21,8.21,0,0,1,.95-.06,6.79,6.79,0,0,1,5.87,3.48L490,911.8a5.81,5.81,0,0,1-2.19,7.92l-91.6,52a15,15,0,0,0,13.53,26.7,5,5,0,0,0,.51-.27l.72-.43L472,963l2.75,5-2.41,1.4-58.55,33.23-.7.37a5.58,5.58,0,0,0-.58.35,15,15,0,0,0,14.73,25.94,4,4,0,0,0,.61-.33l.62-.36,12.58-7.14.53-.31,47.92-27.2,2.81,4.91-2.44,1.41-58.65,33.29c-.2.12-.4.23-.61.33a4,4,0,0,0-.56.34,15,15,0,0,0,4.61,26.72,15.19,15.19,0,0,0,3.84.53,14.84,14.84,0,0,0,6.26-1.31,4,4,0,0,0,.46-.24l.78-.46,61.06-34.65,2.75,4.94-2.41,1.4-58.57,33.24-.68.37a4.19,4.19,0,0,0-.58.34,15,15,0,0,0,16,25.29c44.54-25.27,74.62-40.16,82.77-44.13l.23-.11a14.42,14.42,0,0,0,1.34-.89l.22-.16.81-.54c3.66-2.5,4-2.7,15.22-7.16l.29-.11.32,0a14.74,14.74,0,0,1,2.32-.14,40.26,40.26,0,0,1,10.2,1.73l.3.08,13.33,3.12a395.07,395.07,0,0,0,80.65,9.14,384.53,384.53,0,0,0,109.48-14.7,4.69,4.69,0,0,0,3.27-5.56,21.12,21.12,0,0,1-.52-4.79l.43-67.83a3,3,0,0,0,0-.42l.17-26.06a4.69,4.69,0,0,0-4.64-4.71,4.75,4.75,0,0,0-1.77.33A274.1,274.1,0,0,1,674.1,946.64,287.79,287.79,0,0,1,579,929.35a5.56,5.56,0,0,1-1.56-.89l-.83-.69a5.12,5.12,0,0,1-1.45-1.95l-5.66-13.77a24.22,24.22,0,0,0-5.43-8l-.15-.14-28.61-25.66c-3.61-3.48-6.24-6-13-6.15l-1,0c-17.38-.52-32.83-1.07-43.5-1.55Z" transform="translate(-170.51 -206.67)"/><path class="cls-3" d="M457,474.24m487.06,178a4.69,4.69,0,0,0-2.62,3.53C931.29,722.07,896.68,783.1,844,827.63a5.27,5.27,0,0,1-1.57.9l-1,.38a5.18,5.18,0,0,1-1.83.31,3.81,3.81,0,0,1-.59,0l-14.75-1.95a22.68,22.68,0,0,0-3-.22,24,24,0,0,0-6.73.9l-.19.06-36.52,12c-4.8,1.38-8.28,2.41-11.82,8.19l-.39.64c-5.28,8.55-15.31,24.75-23.18,37.12a4.41,4.41,0,0,0-.54,1.19c-.21.7-.47,1.61-.56,1.95h0a144.34,144.34,0,0,0-4.25,19.68,4.68,4.68,0,0,0,4.6,5.25,4.35,4.35,0,0,0,1.19-.14c7.42-1.86,14.87-4.09,22.14-6.61a4.67,4.67,0,0,0,2.78-2.6l1.92-4.54a6.82,6.82,0,0,1,6.34-4.17l8.29.06a5.81,5.81,0,0,1,5.74,5.84l-.25,38.3c0,.14,0,.28,0,.42l-.42,66.59a15,15,0,0,0,29.87,1.61,5.78,5.78,0,0,0,0-.58c0-.27,0-.55,0-.84l.44-70.19,5.66.06v3.17l-.43,67c0,.27,0,.55,0,.84a5.86,5.86,0,0,0,0,.59,15,15,0,0,0,29.82.19,3.87,3.87,0,0,0,0-.68c0-.16,0-.32,0-.48v-.3c0-3,.1-14.48.1-14.48s0-.76,0-2l.23-35.49v-.91l.11-17.26h5.66v2.82l-.43,67.36c0,.29,0,.57,0,.86a5.42,5.42,0,0,0,0,.57,15,15,0,0,0,29.82.19c0-.19,0-.44,0-.62s0-.52,0-.79l.45-70.19,5.66,0v2.8L896,1007.8c0,.23,0,.47,0,.72a4.33,4.33,0,0,0,0,.72,15,15,0,0,0,14.82,13.64A15,15,0,0,0,925.92,1008c.33-52.46,2.61-87.31,3.07-93.76v-.1a10.91,10.91,0,0,0-.07-1.58l-.12-1.42c-.34-4.49-.36-4.76,1.41-16.77l0-.31.11-.29c1.24-3.18,4.72-7.34,7.62-10a2.39,2.39,0,0,0,.23-.22l9.35-10a390.29,390.29,0,0,0,89.53-165.34,4.69,4.69,0,0,0-3.1-5.61,21,21,0,0,1-4.27-1.93l-81.28-48.15a4.68,4.68,0,0,0-2.34-.66A4.89,4.89,0,0,0,944.06,652.27ZM891.18,329.54a20.8,20.8,0,0,1-3.9,2.84l-82.16,46.3a4.68,4.68,0,0,0-.62,7.73c52.84,42.23,88.55,103.25,100.55,171.82a5.2,5.2,0,0,1,0,1.76l-.19,1.09a5.08,5.08,0,0,1-1,2.2L894.76,575a24.17,24.17,0,0,0-4.28,8.72c0,.06,0,.12,0,.18l-8.06,37.58c-1.23,4.85-2.09,8.38,1.15,14.41.1.19,12.19,22.81,20.69,39.33a4.27,4.27,0,0,0,.79,1.1l.44.46.91.95a147.17,147.17,0,0,0,14.71,13.49,4.64,4.64,0,0,0,2.8,1,4.59,4.59,0,0,0,1.51-.24,4.7,4.7,0,0,0,3-3.14c2.14-7.41,4-15,5.47-22.54a4.73,4.73,0,0,0-.85-3.71l-2.81-3.75a6.82,6.82,0,0,1-.4-7.59l4.2-7.1a5.85,5.85,0,0,1,5.07-2.84,5.77,5.77,0,0,1,2.89.8l90.6,53.68a15,15,0,0,0,7.47,2.1,15.25,15.25,0,0,0,3.87-.47,15,15,0,0,0,5.11-26.62,3.36,3.36,0,0,0-.51-.32l-.71-.4-60.38-35.76,2.87-4.88,2.44,1.42,58,34.32.5.3.28.18a4.92,4.92,0,0,0,.45.24,14.75,14.75,0,0,0,6.22,1.43,15,15,0,0,0,9-27.08c-.13-.09-.26-.18-.4-.26l-.81-.46-60.38-35.76,2.86-4.88,2.44,1.41,58,34.33.69.43a6,6,0,0,0,.56.3,14.73,14.73,0,0,0,6.21,1.42,15,15,0,0,0,9-27.08,4.53,4.53,0,0,0-.46-.3l-.16-.09c-.18-.1-.35-.19-.59-.34l-60.4-35.76,2.9-4.87,2.42,1.41,58,34.36c.22.12.43.25.65.39a2.86,2.86,0,0,0,.54.3,14.71,14.71,0,0,0,6.22,1.43,15,15,0,0,0,13.05-7.35,15,15,0,0,0-5.26-20.52c-44-26-71.9-44.78-79.42-49.91l-.17-.11a15.2,15.2,0,0,0-1.57-.79l-1-.5c-4-1.95-4.35-2.11-13.77-9.66l-.26-.2-.19-.25c-2.13-2.69-4-7.79-4.84-11.65,0-.1,0-.21-.08-.31l-3.92-13.13a390.09,390.09,0,0,0-99.27-162.24,4.69,4.69,0,0,0-3.23-1.32A4.63,4.63,0,0,0,891.18,329.54ZM817.48,208.6c-44.46,25.08-74.69,40-82.89,43.91l-.16.07a13.45,13.45,0,0,0-1.44.94l-.19.14-.8.54c-3.7,2.5-4,2.71-15.27,7.12l-.29.11-.31.05a15.36,15.36,0,0,1-2.27.13,39.4,39.4,0,0,1-10.24-1.76l-.3-.08L690,256.61a395.77,395.77,0,0,0-81.73-9.38h0a384.72,384.72,0,0,0-108.41,14.41,4.68,4.68,0,0,0-3.28,5.56,20.59,20.59,0,0,1,.51,4.78l-.62,67.84c0,.14,0,.29,0,.43l-.24,26a4.68,4.68,0,0,0,4.64,4.73,4.85,4.85,0,0,0,1.75-.33,273.83,273.83,0,0,1,103.19-18.94,287.62,287.62,0,0,1,95.89,17.58,5,5,0,0,1,1.5.87l.87.73a5,5,0,0,1,1.42,1.93l5.63,13.78a23.79,23.79,0,0,0,5.41,8.06l.14.13,28.55,25.75c3.59,3.48,6.21,6,13,6.19l.7,0c10,.33,29.08,1,43.77,1.68h.18a4.78,4.78,0,0,0,1.13-.13l2-.49h0a142.76,142.76,0,0,0,19.21-6.09,4.68,4.68,0,0,0,1.56-7.56c-5.33-5.54-11-10.9-16.75-15.93a4.64,4.64,0,0,0-3-1.15,3.16,3.16,0,0,0-.61,0l-4.87.59c-.3,0-.6.05-.9.05a6.78,6.78,0,0,1-5.89-3.5l-4.06-7.19a5.81,5.81,0,0,1,2.22-7.9l91.74-51.71a15,15,0,0,0,5.69-20.41,15.06,15.06,0,0,0-12.92-7.61,14.8,14.8,0,0,0-6.22,1.29,5.06,5.06,0,0,0-.46.24l-.77.45-61.15,34.48L805.93,331l2.43-1.4,58.69-33.09.72-.39c.18-.1.35-.2.51-.31a15,15,0,0,0-4.54-26.71,15.18,15.18,0,0,0-3.9-.56,14.78,14.78,0,0,0-6.2,1.3,4,4,0,0,0-.46.23l-.35.21-.35.2L791.27,305l-2.8-4.92,2.45-1.41,58.7-33.1.53-.29.23-.12c.15-.08.31-.18.46-.28a15,15,0,0,0-14.65-26,4.77,4.77,0,0,0-.63.34l-.61.36-61.12,34.47-2.8-4.92,2.45-1.4,58.65-33.08.86-.47.4-.25a15,15,0,0,0-15.91-25.34ZM470.87,257.9a15,15,0,0,0-9.29,12.33,4.33,4.33,0,0,0,0,.72c0,.24,0,.47,0,.71l-.65,70.18-5.66-.06V339l.63-67.38c0-.23,0-.46,0-.7a5.63,5.63,0,0,0,0-.71,15,15,0,0,0-14.79-13.7,15,15,0,0,0-10.62,4.28,15,15,0,0,0-4.41,9.13,5.83,5.83,0,0,0,0,.59c0,.28,0,.56,0,.84l-.64,70.18-5.67-.05v-2.81l.63-67.37c0-.29,0-.57,0-.85a3.75,3.75,0,0,0,0-.58,15,15,0,0,0-14.79-13.68A14.79,14.79,0,0,0,395,260.45a15,15,0,0,0-4.41,9.12,5.83,5.83,0,0,0,0,.59c0,.28,0,.56,0,.84l-.64,70.18-5.66-.05v-2.81l.62-67.37c0-.28,0-.56,0-.84a3.9,3.9,0,0,0,0-.59,15,15,0,0,0-29.9,1.16c-.47,51.28-2.67,84.71-3.34,93.74v.13a12,12,0,0,0,.09,1.77l.09,1.2c.32,4.46.34,4.82-1.45,16.73l-.05.33-.12.3c-1.24,3.18-4.74,7.33-7.65,10l-.22.22-9.39,10c-43.7,47.75-75,105.58-90.55,167.26a4.57,4.57,0,0,0-.15,1.11,4.68,4.68,0,0,0,3.32,4.52,20.41,20.41,0,0,1,4.4,1.94l81.26,47.84a4.73,4.73,0,0,0,2.33.65,4.8,4.8,0,0,0,2.06-.46,4.67,4.67,0,0,0,2.62-3.53c10-66.88,44.88-128.38,98.17-173.15a5.19,5.19,0,0,1,1.54-.9l1-.38a4.86,4.86,0,0,1,1.77-.31,6,6,0,0,1,.61,0l14.76,2a25.35,25.35,0,0,0,3,.21,24.41,24.41,0,0,0,6.68-.87l.2-.07,36.54-11.89c4.81-1.36,8.3-2.37,11.91-8.24.55-.9,13.75-22.18,23.63-37.6a5.06,5.06,0,0,0,.56-1.23l.54-1.9a143.85,143.85,0,0,0,4.31-19.68,4.68,4.68,0,0,0-4.61-5.26,4.26,4.26,0,0,0-1.17.14c-7.48,1.85-14.94,4.06-22.16,6.54a4.68,4.68,0,0,0-2.78,2.59L510.84,379a6.85,6.85,0,0,1-6.37,4.16l-8.26-.08a5.81,5.81,0,0,1-5.75-5.86l.36-38.31c0-.14,0-.28,0-.43l.6-66.56a15,15,0,0,0-14.83-15.12A15,15,0,0,0,470.87,257.9ZM235.74,583.2A15,15,0,0,0,225,601.45a15,15,0,0,0,5.69,8.37,5,5,0,0,0,.58.35l.66.38,60.49,35.59L289.57,651l-2.43-1.41L229,615.4c-.18-.1-.35-.21-.52-.32a3.94,3.94,0,0,0-.63-.36,14.84,14.84,0,0,0-10.1-.92,15,15,0,0,0-5,26.63,4.53,4.53,0,0,0,.55.34l.67.38,12.46,7.33,33,19.42.15.09,14.87,8.75-2.86,4.88-2.44-1.41L211,646l-.64-.39a3.81,3.81,0,0,0-.56-.31,14.65,14.65,0,0,0-6.16-1.41,15.27,15.27,0,0,0-3.93.48,15,15,0,0,0-5,26.64,5.19,5.19,0,0,0,.5.31l.71.4,60.48,35.59-2.85,4.89-2.44-1.41-58-34.12-.77-.48a4.82,4.82,0,0,0-.5-.27,15,15,0,0,0-14,26.46c45.16,26.58,74.21,46.05,79.57,49.69l.16.1a11.83,11.83,0,0,0,1.48.76l.25.12.87.42c4,1.94,4.34,2.09,13.78,9.6l.26.21.21.26c2.13,2.65,4,7.76,4.87,11.64,0,.1.05.2.08.3l3.95,13.11c19.57,61.7,54.05,117.71,99.74,162a4.68,4.68,0,0,0,6.47,0,20.44,20.44,0,0,1,3.86-2.84l82-46.52a4.68,4.68,0,0,0,.6-7.74c-52.95-42.08-88.83-103-101-171.55a5.2,5.2,0,0,1,0-1.76l.17-1.06a5,5,0,0,1,1-2.21l9.08-11.78a23.83,23.83,0,0,0,4.27-8.72,1.46,1.46,0,0,0,.05-.2l7.95-37.61c1.21-4.84,2.07-8.37-1.19-14.39-.1-.19-12.23-22.75-20.81-39.28a4.73,4.73,0,0,0-.76-1.07l-1.41-1.47a146.62,146.62,0,0,0-14.9-13.55,4.67,4.67,0,0,0-2.77-.94,4.45,4.45,0,0,0-1.53.24,4.67,4.67,0,0,0-3,3.15c-2.11,7.38-3.92,14.93-5.39,22.46a4.68,4.68,0,0,0,.85,3.72l3,4A6.81,6.81,0,0,1,350,629l-4.2,7.12a5.83,5.83,0,0,1-5.08,2.85,5.75,5.75,0,0,1-2.87-.8l-90.75-53.42a14.92,14.92,0,0,0-7.43-2.08A15.14,15.14,0,0,0,235.74,583.2ZM477.66,851.48a5.24,5.24,0,0,0-1.11.12l-2,.5h0a144.9,144.9,0,0,0-19.15,6.14,4.69,4.69,0,0,0-1.54,7.57c5.33,5.51,11,10.85,16.78,15.89a4.7,4.7,0,0,0,3,1.14q.31,0,.63,0l4.85-.61a8.21,8.21,0,0,1,.95-.06,6.79,6.79,0,0,1,5.87,3.48L490,892.8a5.81,5.81,0,0,1-2.19,7.92l-91.6,52a15,15,0,0,0,13.53,26.7,5,5,0,0,0,.51-.27l.72-.43L472,944l2.75,5-2.41,1.4L413.82,983.6l-.7.37a5.58,5.58,0,0,0-.58.35,15,15,0,0,0,14.73,25.94,4,4,0,0,0,.61-.33l.62-.36,12.58-7.14.53-.31,47.92-27.2,2.81,4.91-2.44,1.41-58.65,33.29c-.2.12-.4.23-.61.33a4,4,0,0,0-.56.34,15,15,0,0,0,4.61,26.72,15.19,15.19,0,0,0,3.84.53,14.84,14.84,0,0,0,6.26-1.31,4,4,0,0,0,.46-.24l.78-.46,61.06-34.65,2.75,4.94-2.41,1.4-58.57,33.24-.68.37a4.19,4.19,0,0,0-.58.34,15,15,0,0,0,16,25.29c44.54-25.27,74.62-40.16,82.77-44.13l.23-.11a14.42,14.42,0,0,0,1.34-.89l.22-.16.81-.54c3.66-2.5,4-2.7,15.22-7.16l.29-.11.32,0a14.74,14.74,0,0,1,2.32-.14,40.26,40.26,0,0,1,10.2,1.73l.3.08,13.33,3.12a395.07,395.07,0,0,0,80.65,9.14,384.53,384.53,0,0,0,109.48-14.7,4.69,4.69,0,0,0,3.27-5.56,21.12,21.12,0,0,1-.52-4.79l.43-67.83a3,3,0,0,0,0-.42l.17-26.06a4.69,4.69,0,0,0-4.64-4.71,4.75,4.75,0,0,0-1.77.33A274.1,274.1,0,0,1,674.1,927.64,287.79,287.79,0,0,1,579,910.35a5.56,5.56,0,0,1-1.56-.89l-.83-.69a5.12,5.12,0,0,1-1.45-1.95l-5.66-13.77a24.22,24.22,0,0,0-5.43-8l-.15-.14-28.61-25.66c-3.61-3.48-6.24-6-13-6.15l-1,0c-17.38-.52-32.83-1.07-43.5-1.55Z" transform="translate(-170.51 -206.67)"/><path class="cls-4" d="M751.2,589.81a10.38,10.38,0,1,1-10.37-10.39A10.37,10.37,0,0,1,751.2,589.81Zm9.43-30.2A10.39,10.39,0,1,0,771,570,10.37,10.37,0,0,0,760.63,559.61Zm19.82,19.81a10.38,10.38,0,1,0,10.38,10.39A10.39,10.39,0,0,0,780.45,579.42Zm-19.82,19.82A10.38,10.38,0,1,0,771,609.62,10.37,10.37,0,0,0,760.63,599.24Zm-63.14,82.19a27,27,0,1,1,30.26-30.34A27.08,27.08,0,0,1,697.49,681.43Zm26.82-26.8A23.37,23.37,0,0,0,700,631.31a23.61,23.61,0,0,0-22.34,22.49,23.35,23.35,0,1,0,46.68.83ZM701,635.22a19.42,19.42,0,1,0,19.42,19.41A19.42,19.42,0,0,0,701,635.22Zm-95.27,23a27,27,0,1,1-30.32-30.29A27.13,27.13,0,0,1,605.68,658.23Zm-3.45-4.37a23.35,23.35,0,1,0-23.33,24.22A23.57,23.57,0,0,0,602.23,653.86Zm-23.36-18.55a19.42,19.42,0,1,0,19.35,21.56A19.42,19.42,0,0,0,578.87,635.31ZM514.1,586.64l-12.87-7.42a3.65,3.65,0,0,0-5.46,3.16v14.85a3.65,3.65,0,0,0,5.47,3.16L514.11,593A3.64,3.64,0,0,0,514.1,586.64Zm17.16-24.94H516.41a3.65,3.65,0,0,0-3.15,5.48L520.69,580a3.63,3.63,0,0,0,6.3,0l7.42-12.86A3.65,3.65,0,0,0,531.26,561.7Zm20.65,20.64a3.64,3.64,0,0,0-5.46-3.15l-12.85,7.43a3.64,3.64,0,0,0,0,6.31l12.86,7.41a3.65,3.65,0,0,0,5.47-3.15Zm-17.47,30L527,599.53a3.65,3.65,0,0,0-6.32,0l-7.41,12.87a3.65,3.65,0,0,0,3.16,5.47l14.85,0A3.64,3.64,0,0,0,534.44,612.39Z" transform="translate(-170.51 -206.67)"/></svg>