<svg xmlns="http://www.w3.org/2000/svg" viewBox="0 0 144.62 57.08"><defs><style>.cls-1{fill:#ff931e;}</style></defs><g id="Слой_2" data-name="Слой 2"><g id="Слой_1-2" data-name="Слой 1"><g id="Слой_2-2" data-name="Слой 2"><g id="Games"><path class="cls-1" d="M127.62,0H17A17,17,0,0,0,0,17V40.08a17,17,0,0,0,17,17H127.62a17,17,0,0,0,17-17V17A17,17,0,0,0,127.62,0ZM53.45,38.51c-1.89,1.26-5,2-10.22,2a43.69,43.69,0,0,1-6.76-.43V17a57.8,57.8,0,0,1,8-.53c3.71,0,5.63.25,7.49,1a5.32,5.32,0,0,1,3.6,5c0,2-1.12,3.88-4,4.9v.07c2.94.77,4.8,2.87,4.8,5.81A6.4,6.4,0,0,1,53.45,38.51ZM81.9,29.27c0,7.7-4.09,11.38-11.27,11.38-6.75,0-10.71-3.44-10.71-11.56V16.63h6.62V29.44c0,3.72,1.36,6.1,4.37,6.1s4.38-2.21,4.38-6.1V16.63H81.9Zm17.68.87V40.23H93V30.39L84.77,16.63h7.74l2.2,5.25c.74,1.72,1.19,2.73,1.79,4.2h.07c.56-1.36,1.08-2.55,1.75-4.16l2.2-5.29h7.63Zm-54.81,0H43v5.46a16.85,16.85,0,0,0,2.13.07c2.31,0,4.24-.8,4.24-2.87S47.39,30.18,44.77,30.18Zm4.17-6.93c0-1.33-1.16-2.1-3.5-2.1a14.56,14.56,0,0,0-2.38.14v4.27h1.4c3,0,4.44-.84,4.44-2.31Z"/></g></g></g></g></svg>