<svg xmlns="http://www.w3.org/2000/svg" viewBox="0 0 200 50"><defs><style>.cls-1{fill:#ff931e;}</style></defs><g id="Слой_2" data-name="Слой 2"><g id="Слой_1-2" data-name="Слой 1"><g id="Слой_2-2" data-name="Слой 2"><g id="Games"><path class="cls-1" d="M59.82,18.9c-3,0-5,2.65-5,6.13s1.92,6.08,5,6.08,4.93-2.59,4.93-6.08S62.82,18.9,59.82,18.9Zm0,0c-3,0-5,2.65-5,6.13s1.92,6.08,5,6.08,4.93-2.59,4.93-6.08S62.82,18.9,59.82,18.9Zm0,0c-3,0-5,2.65-5,6.13s1.92,6.08,5,6.08,4.93-2.59,4.93-6.08S62.82,18.9,59.82,18.9Zm53.68,0c-3,0-5,2.65-5,6.13s1.92,6.08,5,6.08,4.93-2.59,4.93-6.08-1.93-6.13-5-6.13Zm0,0c-3,0-5,2.65-5,6.13s1.92,6.08,5,6.08,4.93-2.59,4.93-6.08-1.93-6.13-5-6.13Zm-53.68,0c-3,0-5,2.65-5,6.13s1.92,6.08,5,6.08,4.93-2.59,4.93-6.08S62.82,18.9,59.82,18.9ZM183,0H17A17,17,0,0,0,0,17H0V33A17,17,0,0,0,17,50H183a17,17,0,0,0,17-17V17A17,17,0,0,0,183,0ZM48.11,35.14H33.67V14.87h5.69V30.39h8.75Zm11.4.36c-6.69,0-10.69-4.48-10.69-10.32,0-6.19,4.45-10.67,11.1-10.67,6.81,0,10.9,4.42,10.9,10.37C70.82,31,66.49,35.5,59.51,35.5Zm33.83-1.44a27.16,27.16,0,0,1-7.85,1.29c-4.45,0-7.49-1.08-9.47-3a9.43,9.43,0,0,1-3-7c0-7,5.57-10.7,12.78-10.7a17.1,17.1,0,0,1,6.68,1.11l-1.2,4.45a13.71,13.71,0,0,0-5.66-1C82.07,19.21,79,21,79,24.83c0,3.61,2.7,6,6.61,6a7.49,7.49,0,0,0,2.11-.21V27.35H84.6V23h8.69Zm19.85,1.44c-6.67,0-10.73-4.48-10.73-10.32,0-6.19,4.45-10.67,11.09-10.67,6.86,0,10.92,4.42,10.92,10.37,0,6.14-4.3,10.62-11.28,10.62Zm33.23-9.77c0,6.61-3.51,9.77-9.68,9.77-5.8,0-9.2-3-9.2-9.92V14.87h5.68v11c0,3.18,1.17,5.23,3.76,5.23s3.76-1.9,3.76-5.23v-11h5.68Zm19.91-6.23H160.5V35.14h-5.68V19.5h-5.71V14.87h17.23Zm-52.87-.6c-3,0-5,2.65-5,6.13s1.92,6.08,5,6.08,4.93-2.59,4.93-6.08-1.89-6.13-4.93-6.13Zm-53.64,0c-3,0-5,2.65-5,6.13s1.92,6.08,5,6.08,4.93-2.59,4.93-6.08S62.82,18.9,59.82,18.9Zm0,0c-3,0-5,2.65-5,6.13s1.92,6.08,5,6.08,4.93-2.59,4.93-6.08S62.82,18.9,59.82,18.9Zm53.68,0c-3,0-5,2.65-5,6.13s1.92,6.08,5,6.08,4.93-2.59,4.93-6.08-1.93-6.13-5-6.13Zm0,0c-3,0-5,2.65-5,6.13s1.92,6.08,5,6.08,4.93-2.59,4.93-6.08-1.93-6.13-5-6.13Zm-53.68,0c-3,0-5,2.65-5,6.13s1.92,6.08,5,6.08,4.93-2.59,4.93-6.08S62.82,18.9,59.82,18.9Zm0,0c-3,0-5,2.65-5,6.13s1.92,6.08,5,6.08,4.93-2.59,4.93-6.08S62.82,18.9,59.82,18.9Zm0,0c-3,0-5,2.65-5,6.13s1.92,6.08,5,6.08,4.93-2.59,4.93-6.08S62.82,18.9,59.82,18.9Z"/></g></g></g></g></svg>