<svg xmlns="http://www.w3.org/2000/svg" viewBox="0 0 144.61 57.06"><defs><style>.cls-1{fill:#ff931e;}</style></defs><g id="Слой_2" data-name="Слой 2"><g id="Слой_1-2" data-name="Слой 1"><g id="Слой_2-2" data-name="Слой 2"><g id="Games"><path class="cls-1" d="M38,21.53a12.11,12.11,0,0,0-2.17.14v5.88a9.82,9.82,0,0,0,1.71.1c2.56,0,4.38-1.15,4.38-3.29C42,22.65,40.66,21.53,38,21.53Zm45.43,4.16c-.42-1.33-.91-3-1.33-4.41h-.07c-.39,1.37-.74,3.08-1.12,4.45l-1.12,4.13h4.9Zm0,0c-.42-1.33-.91-3-1.33-4.41h-.07c-.39,1.37-.74,3.08-1.12,4.45l-1.12,4.13h4.9ZM38,21.53a12.11,12.11,0,0,0-2.17.14v5.88a9.82,9.82,0,0,0,1.71.1c2.56,0,4.38-1.15,4.38-3.29C42,22.65,40.66,21.53,38,21.53ZM127.61,0H17A17,17,0,0,0,0,17V40.06a17,17,0,0,0,17,17H127.61a17,17,0,0,0,17-17V17A17,17,0,0,0,127.61,0ZM46.24,30.07c-2,1.78-4.9,2.59-8.54,2.59-.73,0-1.36-.07-1.78-.1v7.87h-6.6V17.18A56.92,56.92,0,0,1,38,16.66c3.53,0,6,.7,7.66,1.89a7,7,0,0,1,2.87,5.81A7.49,7.49,0,0,1,46.24,30.07Zm22.4,10.36H51.79V16.84h6.62V34.9H68.59Zm18.9,0-1.75-5.74H78.88l-1.5,5.74h-7l7.46-23.59h9l7.94,23.59Zm19.22-10.08V40.43h-6.62V30.6L92,16.84h7.74l2.2,5.25c.74,1.71,1.19,2.73,1.79,4.2h.07c.56-1.37,1.08-2.56,1.75-4.17l2.2-5.28h7.54ZM82.14,21.28h-.07c-.39,1.37-.74,3.08-1.12,4.45l-1.12,4.13h4.9l-1.26-4.17C83.05,24.36,82.56,22.65,82.14,21.28ZM38,21.53a12.11,12.11,0,0,0-2.17.14v5.88a9.82,9.82,0,0,0,1.71.1c2.56,0,4.38-1.15,4.38-3.29C42,22.65,40.66,21.53,38,21.53Zm0,0a12.11,12.11,0,0,0-2.17.14v5.88a9.82,9.82,0,0,0,1.71.1c2.56,0,4.38-1.15,4.38-3.29C42,22.65,40.66,21.53,38,21.53Zm0,0a12.11,12.11,0,0,0-2.17.14v5.88a9.82,9.82,0,0,0,1.71.1c2.56,0,4.38-1.15,4.38-3.29C42,22.65,40.66,21.53,38,21.53Z"/></g></g></g></g></svg>