<svg id="Слой_1" data-name="Слой 1" xmlns="http://www.w3.org/2000/svg" viewBox="0 0 500 500"><defs><style>.cls-1{fill:#ac93c7;opacity:0.05;}</style></defs><circle class="cls-1" cx="230.54" cy="392.92" r="29.16"/><circle class="cls-1" cx="376.31" cy="221.34" r="40.06"/><circle class="cls-1" cx="325.56" cy="367.41" r="33.51"/><circle class="cls-1" cx="325.56" cy="142.84" r="13.63"/><circle class="cls-1" cx="376.31" cy="95.8" r="18.9"/><circle class="cls-1" cx="441.83" cy="148.37" r="19.18"/><circle class="cls-1" cx="391.38" cy="375.77" r="21.66"/><path class="cls-1" d="M409.56,0a47.79,47.79,0,0,1-46.64,37.39A47.79,47.79,0,0,1,316.28,0Z"/><circle class="cls-1" cx="286.8" cy="294.2" r="22.61"/><circle class="cls-1" cx="458.49" cy="367.41" r="28.35"/><path class="cls-1" d="M500,175.17v96.42a49.3,49.3,0,0,1,0-96.42Z"/><circle class="cls-1" cx="184.6" cy="34.09" r="12.91"/><circle class="cls-1" cx="125.8" cy="454.24" r="43.23"/><path class="cls-1" d="M51.37,450.15A39.49,39.49,0,0,1,0,487.77V412.53a39.46,39.46,0,0,1,51.37,37.62Z"/><circle class="cls-1" cx="184.6" cy="308.95" r="23.56"/><circle class="cls-1" cx="236.68" cy="463.47" r="13.32"/><circle class="cls-1" cx="50.55" cy="49.69" r="46.11"/><circle class="cls-1" cx="86.64" cy="348.11" r="39.16"/><circle class="cls-1" cx="236.06" cy="199.84" r="38.01"/><circle class="cls-1" cx="399.81" cy="315.64" r="16.57"/><circle class="cls-1" cx="125.8" cy="225.89" r="26.66"/><circle class="cls-1" cx="286.8" cy="61.56" r="27.46"/><circle class="cls-1" cx="468.51" cy="34.09" r="19.82"/><circle class="cls-1" cx="175.71" cy="110" r="32.83"/><path class="cls-1" d="M59.59,223.38A49.32,49.32,0,0,1,0,271.59V175.17a49.32,49.32,0,0,1,59.59,48.21Z"/><path class="cls-1" d="M410.7,489.6a47.49,47.49,0,0,1-1.14,10.4H316.28a47.78,47.78,0,1,1,94.42-10.4Z"/><circle class="cls-1" cx="34.85" cy="134.74" r="13.63"/><path class="cls-1" d="M500,312.64V338.4a13.62,13.62,0,0,1,0-25.76Z"/><path class="cls-1" d="M18.07,325.52A13.63,13.63,0,0,1,4.44,339.15,13.31,13.31,0,0,1,0,338.4V312.64a13.31,13.31,0,0,1,4.44-.75A13.63,13.63,0,0,1,18.07,325.52Z"/><path class="cls-1" d="M500,412.53v75.24a39.46,39.46,0,0,1,0-75.24Z"/></svg>