<svg id="Слой_1" data-name="Слой 1" xmlns="http://www.w3.org/2000/svg" viewBox="0 0 1000 1000"><defs><style>.cls-1{fill:#1e0f00;}</style></defs><path class="cls-1" d="M430.59,539.41a30,30,0,0,1,21.22,51.21L51.21,991.21A30,30,0,0,1,8.79,948.79l400.59-400.6A29.94,29.94,0,0,1,430.59,539.41Z" transform="translate(0 0)"/><path class="cls-1" d="M430.59,539.41a30,30,0,0,1,30,30V805a30,30,0,0,1-60,0V569.41A30,30,0,0,1,430.59,539.41Z" transform="translate(0 0)"/><path class="cls-1" d="M195.26,539.41H430.82a30,30,0,1,1,0,60H195.26a30,30,0,0,1,0-60Z" transform="translate(0 0)"/><path class="cls-1" d="M569.41,460.59a30,30,0,0,1-21.22-51.21L948.79,8.79a30,30,0,0,1,42.42,42.42L590.62,451.81A29.94,29.94,0,0,1,569.41,460.59Z" transform="translate(0 0)"/><path class="cls-1" d="M569.41,460.59a30,30,0,0,1-30-30V195a30,30,0,1,1,60,0V430.59A30,30,0,0,1,569.41,460.59Z" transform="translate(0 0)"/><path class="cls-1" d="M804.74,460.59H569.18a30,30,0,0,1,0-60H804.74a30,30,0,0,1,0,60Z" transform="translate(0 0)"/></svg>