<svg id="Слой_1" data-name="Слой 1" xmlns="http://www.w3.org/2000/svg" viewBox="0 0 504.5 950.63"><defs><style>.cls-1{fill:#7a2edb;}.cls-2{fill:#fff;opacity:0.09;}.cls-2,.cls-3{isolation:isolate;}.cls-3{fill:#824dd6;opacity:0.64;}.cls-4{fill:#fb9d26;}.cls-5{fill:#ff5c0b;}</style></defs><path class="cls-1" d="M633.22,741.74a237.12,237.12,0,0,1-10.4-79.4c1.2-31.6,7.7-56.3,10.3-67.5,7.5-31.9,10.9-72.4,5.5-124.9-9.7-92.5-46-222.4-134.5-407.7-1.5-3.2-3.1-6.5-4.7-9.7v-.1c-143.1,296.8-154.6,453.3-133.8,542.4.5,1.9,1,4.2,1.7,6.9a310.69,310.69,0,0,1,6.9,38.1,264.35,264.35,0,0,1,.8,54.1c-.1,1.5-.3,2.9-.4,4.4-.3,2.8-.7,5.7-1.1,8.6,0,.2-.1.4-.1.6-.2,1.3-.4,2.5-.6,3.8-.4,2.4-.9,4.8-1.3,7.2-1.6,7.9-3.6,15.7-5.9,23.4-15.7,50.1-47,88.3-78.9,116.5-4.2,3.8-8.5,7.3-12.7,10.8-9.2,7.4-18.2,14-26.7,19.7h0c4.5,9.3,9,18.5,13.4,27.8l.6,1.2c4.7,9.7,9.4,19.5,14.1,29.2l9-2.7.6-.2c9.7-3,19.3-6.2,28.9-9.5,34.8-12,69.3-25.4,105.1-33.1,19.9-4.3,60.2-12.5,80.6-12.5s60.5,8.1,80.4,12.4c49,10.6,95.4,31.9,143.6,45.7q13.95-29.1,28.2-58.2C709.32,860.34,655.72,813.24,633.22,741.74Zm-134-267.8A76.85,76.85,0,1,1,576,397a76.91,76.91,0,0,1-76.8,76.9Z" transform="translate(-247.32 -52.44)"/><path class="cls-2" d="M638.62,469.94c5.4,52.5,2,93-5.5,124.9-2.6,11.2-9.2,35.9-10.3,67.5a81.57,81.57,0,0,1-8.4-4.1,102.2,102.2,0,0,1,24.2-188.3Z" transform="translate(-247.32 -52.44)"/><path class="cls-2" d="M638.62,469.84a102.13,102.13,0,0,1-30.3-133.1c.8-1.3,1.5-2.6,2.3-3.9C625.82,385.84,634.52,431.14,638.62,469.84Z" transform="translate(-247.32 -52.44)"/><path class="cls-3" d="M576,397a76.85,76.85,0,1,1-76.9-76.8A76.91,76.91,0,0,1,576,397Z" transform="translate(-247.32 -52.44)"/><path class="cls-2" d="M463.52,246.94a101.79,101.79,0,0,1-63.9,49.3c0-.3-.1-.6-.1-.8,14.9-46.1,34.4-97.5,59.5-155.1A102.08,102.08,0,0,1,463.52,246.94Z" transform="translate(-247.32 -52.44)"/><polygon class="cls-4" points="257 950.63 309.01 860.54 204.99 860.54 257 950.63"/><polygon class="cls-5" points="295.02 880.77 305.68 862.32 284.37 862.32 295.02 880.77"/><polygon class="cls-5" points="257 947.56 267.65 929.11 246.35 929.11 257 947.56"/><polygon class="cls-5" points="252.25 881.27 262.9 862.82 241.6 862.82 252.25 881.27"/><polygon class="cls-5" points="276.24 913.25 286.89 894.8 265.58 894.8 276.24 913.25"/><polygon class="cls-5" points="233.81 905.01 244.46 886.56 223.15 886.56 233.81 905.01"/></svg>