<svg id="Слой_1" data-name="Слой 1" xmlns="http://www.w3.org/2000/svg" viewBox="0 0 1000 320.89"><defs><style>.cls-1{fill:#ac93c7;opacity:0.4;}</style></defs><circle class="cls-1" cx="110.78" cy="267.56" r="53.33"/><circle class="cls-1" cx="150" cy="37.89" r="33"/><circle class="cls-1" cx="544.56" cy="267.56" r="33"/><circle class="cls-1" cx="345.89" cy="144.97" r="37.89"/><circle class="cls-1" cx="407.39" cy="18.94" r="18.94"/><circle class="cls-1" cx="543.81" cy="147.64" r="25.31"/><circle class="cls-1" cx="635.46" cy="42.43" r="42.43"/><circle class="cls-1" cx="755.34" cy="293.9" r="21.22"/><circle class="cls-1" cx="743.17" cy="152.6" r="30.26"/><circle class="cls-1" cx="838.78" cy="37.89" r="30.26"/><circle class="cls-1" cx="935.64" cy="261.34" r="47.12"/><circle class="cls-1" cx="390.01" cy="284.44" r="36.45"/><circle class="cls-1" cx="197.89" cy="141.28" r="18.94"/><path class="cls-1" d="M1000,58.27V164.94a53.34,53.34,0,0,1,0-106.67Z" transform="translate(0 -28.49)"/><path class="cls-1" d="M53.33,111.61A53.33,53.33,0,0,1,0,164.94V58.27A53.33,53.33,0,0,1,53.33,111.61Z" transform="translate(0 -28.49)"/></svg>