<svg id="Слой_1" data-name="Слой 1" xmlns="http://www.w3.org/2000/svg" viewBox="0 0 754.06 87.52"><defs><style>.cls-1{fill:#8a3de1;}.cls-2{fill:#ff9d00;}</style></defs><path class="cls-1" d="M111.15,495.69l-8.53-19.49a9.35,9.35,0,0,0-3.37-4.2,9,9,0,0,0-5.07-1.41H92v25.1H80.58V435.06H98.26a43.73,43.73,0,0,1,9.09.86,18.88,18.88,0,0,1,7,2.85,13.36,13.36,0,0,1,4.43,5.19,18,18,0,0,1,1.55,7.84,16.82,16.82,0,0,1-1,5.94,13.31,13.31,0,0,1-2.74,4.48,14,14,0,0,1-4.2,3,19.57,19.57,0,0,1-5.31,1.62,7.52,7.52,0,0,1,4.08,2.53,24.77,24.77,0,0,1,3.71,6l9.7,20.32Zm-2.83-42.77c0-3-.94-5.11-2.83-6.4s-4.71-1.95-8.48-1.95H92v17.11h4.63a19.32,19.32,0,0,0,4.81-.55,10.83,10.83,0,0,0,3.68-1.67,7.67,7.67,0,0,0,2.37-2.76A8.21,8.21,0,0,0,108.32,452.92Z" transform="translate(-80.58 -427.65)"/><path class="cls-1" d="M175.72,471.75a31.37,31.37,0,0,1-1.57,10.18,22.58,22.58,0,0,1-4.55,7.91,20.05,20.05,0,0,1-7.28,5.1,25.2,25.2,0,0,1-9.84,1.81,26.88,26.88,0,0,1-9.37-1.53,18.17,18.17,0,0,1-7-4.57A20.13,20.13,0,0,1,131.7,483a33.49,33.49,0,0,1-1.53-10.64,31.11,31.11,0,0,1,1.6-10.21,22.34,22.34,0,0,1,4.59-7.84,20.46,20.46,0,0,1,7.31-5,25.27,25.27,0,0,1,9.74-1.78,26.51,26.51,0,0,1,9.42,1.55,18.28,18.28,0,0,1,7,4.62,20.22,20.22,0,0,1,4.39,7.58A33.2,33.2,0,0,1,175.72,471.75Zm-11.78.28q0-7.33-2.76-11T153,457.32a10.34,10.34,0,0,0-5.06,1.16,9.94,9.94,0,0,0-3.43,3.18,14.28,14.28,0,0,0-2,4.71,25.14,25.14,0,0,0-.63,5.75q0,7.38,3,11.11A9.81,9.81,0,0,0,153,487a10.1,10.1,0,0,0,4.92-1.13,9.15,9.15,0,0,0,3.38-3.16,15,15,0,0,0,1.95-4.75A25.61,25.61,0,0,0,163.94,472Z" transform="translate(-80.58 -427.65)"/><path class="cls-1" d="M223.64,493.88a35.74,35.74,0,0,1-6.91,2,42,42,0,0,1-7.47.65A30.81,30.81,0,0,1,199.2,495a20.13,20.13,0,0,1-7.57-4.55,19.86,19.86,0,0,1-4.75-7.46,29.6,29.6,0,0,1-1.65-10.3A28.09,28.09,0,0,1,187,462.43a22.35,22.35,0,0,1,5-7.84,22.08,22.08,0,0,1,7.82-5,28,28,0,0,1,10.18-1.77,51.91,51.91,0,0,1,7.72.49,45.12,45.12,0,0,1,5.64,1.23v11a28.62,28.62,0,0,0-6.24-2.22,27.74,27.74,0,0,0-6.38-.79,14.35,14.35,0,0,0-5.66,1.07,12,12,0,0,0-4.22,3,12.9,12.9,0,0,0-2.62,4.62,18.86,18.86,0,0,0-.9,6,17.79,17.79,0,0,0,1,6.08,13,13,0,0,0,2.76,4.57,11.87,11.87,0,0,0,4.29,2.87,14.85,14.85,0,0,0,5.57,1,24.8,24.8,0,0,0,3.13-.21,31.6,31.6,0,0,0,3.29-.6c1.1-.26,2.18-.57,3.25-.91s2.06-.71,3-1.11Z" transform="translate(-80.58 -427.65)"/><path class="cls-1" d="M266.92,495.69l-17.4-23.57v23.57H238.21V430.14h11.31V468.5L266,448.56h14.15L261,470l20.69,25.66Z" transform="translate(-80.58 -427.65)"/><path class="cls-1" d="M331,468.5c0,.78,0,1.78-.07,3s-.12,2.39-.21,3.48h-31a14.68,14.68,0,0,0,.95,5.47,10.83,10.83,0,0,0,2.69,4,11.63,11.63,0,0,0,4.18,2.43,16.45,16.45,0,0,0,5.4.84,54,54,0,0,0,7.35-.54,56.76,56.76,0,0,0,8.15-1.74v9c-1.21.34-2.53.65-4,.93s-2.87.53-4.36.74-3,.38-4.5.49-3,.16-4.4.16a28.44,28.44,0,0,1-9.65-1.53,19.15,19.15,0,0,1-7.24-4.52,19.94,19.94,0,0,1-4.55-7.4,30.28,30.28,0,0,1-1.57-10.2,32.88,32.88,0,0,1,1.57-10.47,24.25,24.25,0,0,1,4.46-8.07,19.53,19.53,0,0,1,7-5.19,22.27,22.27,0,0,1,9.16-1.83,23.47,23.47,0,0,1,8.86,1.55,17.74,17.74,0,0,1,6.45,4.34,18.53,18.53,0,0,1,3.94,6.63A25.37,25.37,0,0,1,331,468.5Zm-11.51-1.62a13.79,13.79,0,0,0-.69-4.85,9.77,9.77,0,0,0-2-3.41,8,8,0,0,0-3-2,10.14,10.14,0,0,0-3.64-.65,9.3,9.3,0,0,0-7,2.85,13.13,13.13,0,0,0-3.24,8.05Z" transform="translate(-80.58 -427.65)"/><path class="cls-1" d="M381.08,495.22q-3.06.7-6.17,1.11a44.09,44.09,0,0,1-5.89.42,28.9,28.9,0,0,1-8-1,13.89,13.89,0,0,1-5.57-3,11.82,11.82,0,0,1-3.25-5.08,23.22,23.22,0,0,1-1-7.35v-23H338.49v-8.81h12.67V436.5l11.59-3v15.08h18.33v8.81H362.75v22.17c0,2.69.62,4.73,1.86,6.1s3.31,2.07,6.22,2.07a31.22,31.22,0,0,0,5.42-.47c1.77-.31,3.37-.66,4.83-1.06Z" transform="translate(-80.58 -427.65)"/><path class="cls-1" d="M516.53,493.32a46.06,46.06,0,0,1-7.82,2.41,38.1,38.1,0,0,1-7.86.79,32.39,32.39,0,0,1-11.58-1.92,21.91,21.91,0,0,1-8.48-5.73,25.08,25.08,0,0,1-5.25-9.44,48.81,48.81,0,0,1,.17-26.72,28.33,28.33,0,0,1,5.56-10.07,23.86,23.86,0,0,1,8.79-6.26,29.89,29.89,0,0,1,11.62-2.16c1.39,0,2.7,0,3.92.1s2.42.17,3.6.34,2.36.4,3.57.68,2.46.63,3.76,1.06v11.32a36.1,36.1,0,0,0-7.52-2.64,30,30,0,0,0-6.49-.79,16.22,16.22,0,0,0-7.38,1.55,13.57,13.57,0,0,0-5,4.36,19.45,19.45,0,0,0-2.9,6.68,36.5,36.5,0,0,0-.93,8.51,37.31,37.31,0,0,0,1,8.8,18.23,18.23,0,0,0,2.95,6.56,12.89,12.89,0,0,0,5.1,4.1,17.57,17.57,0,0,0,7.38,1.42A20,20,0,0,0,506,486c1.19-.2,2.4-.47,3.62-.79s2.43-.71,3.62-1.16,2.3-.91,3.32-1.37Z" transform="translate(-80.58 -427.65)"/><path class="cls-1" d="M571.08,471.75a31.37,31.37,0,0,1-1.58,10.18,22.43,22.43,0,0,1-4.55,7.91,19.88,19.88,0,0,1-7.28,5.1,25.12,25.12,0,0,1-9.83,1.81,26.8,26.8,0,0,1-9.37-1.53,18.2,18.2,0,0,1-7-4.57,20.24,20.24,0,0,1-4.4-7.61,33.49,33.49,0,0,1-1.53-10.64,30.85,30.85,0,0,1,1.6-10.21,22,22,0,0,1,4.59-7.84,20.42,20.42,0,0,1,7.3-5,25.33,25.33,0,0,1,9.75-1.78,26.49,26.49,0,0,1,9.41,1.55,18.31,18.31,0,0,1,7,4.62,20.34,20.34,0,0,1,4.38,7.58A33.19,33.19,0,0,1,571.08,471.75ZM559.3,472c0-4.89-.93-8.56-2.76-11s-4.56-3.69-8.14-3.69a10.31,10.31,0,0,0-5.06,1.16,9.86,9.86,0,0,0-3.43,3.18,14.3,14.3,0,0,0-2,4.71,25.73,25.73,0,0,0-.62,5.75q0,7.38,3,11.11A9.8,9.8,0,0,0,548.4,487a10.09,10.09,0,0,0,4.91-1.13,9.25,9.25,0,0,0,3.39-3.16,15.48,15.48,0,0,0,1.95-4.75A25.61,25.61,0,0,0,559.3,472Z" transform="translate(-80.58 -427.65)"/><path class="cls-1" d="M614.12,495.69v-32.1q0-1.77-.09-3.09a9.37,9.37,0,0,0-.37-2.2,2.69,2.69,0,0,0-.81-1.32,2.19,2.19,0,0,0-1.46-.44c-1,0-1.9.64-2.83,1.94a31.23,31.23,0,0,0-3.16,6.64v30.57h-9.69v-32.1q0-1.77-.09-3.09a10.54,10.54,0,0,0-.37-2.2,2.65,2.65,0,0,0-.84-1.32,2.29,2.29,0,0,0-1.48-.44c-.81,0-1.7.64-2.69,1.94a28.89,28.89,0,0,0-3.3,6.64v30.57h-9.79V448.56h8.4l.19,6.86a28.32,28.32,0,0,1,2-3.57,11.63,11.63,0,0,1,2.18-2.44,7.3,7.3,0,0,1,2.48-1.36,9.86,9.86,0,0,1,3-.42,8.17,8.17,0,0,1,6,2.06,8.75,8.75,0,0,1,2.34,5.73,30.32,30.32,0,0,1,2.2-3.57,13.17,13.17,0,0,1,2.28-2.44,7.51,7.51,0,0,1,2.55-1.36,10.3,10.3,0,0,1,3-.42q5.14,0,7.6,3.59t2.46,10.65v33.82Z" transform="translate(-80.58 -427.65)"/><path class="cls-1" d="M675.49,471.29a31,31,0,0,1-1.83,11.22,21.25,21.25,0,0,1-5.1,7.86,20.41,20.41,0,0,1-7.72,4.64,29.94,29.94,0,0,1-9.7,1.51,27.74,27.74,0,0,1-3.52-.23,29.81,29.81,0,0,1-3.21-.6V514.1H633.1V448.56h9.78l.28,6.95a34.15,34.15,0,0,1,3-3.29,17.79,17.79,0,0,1,3.37-2.53,16.08,16.08,0,0,1,3.89-1.6,18.35,18.35,0,0,1,4.69-.55,15.9,15.9,0,0,1,7.42,1.67A15,15,0,0,1,671,454a22.7,22.7,0,0,1,3.36,7.47A38.28,38.28,0,0,1,675.49,471.29Zm-11.87.46a33.82,33.82,0,0,0-.56-6.63,14.3,14.3,0,0,0-1.6-4.5,6.59,6.59,0,0,0-2.55-2.58,7.17,7.17,0,0,0-3.45-.81,8.19,8.19,0,0,0-5.5,2.32,40.19,40.19,0,0,0-5.55,6.31v20.59a17.18,17.18,0,0,0,3.32.84,24.29,24.29,0,0,0,4,.32,10.56,10.56,0,0,0,8.66-4.26,14.83,14.83,0,0,0,2.38-5A24.09,24.09,0,0,0,663.62,471.75Z" transform="translate(-80.58 -427.65)"/><path class="cls-1" d="M714.88,495.69l-.28-6.17a32.37,32.37,0,0,1-3.11,2.89,18.79,18.79,0,0,1-3.57,2.3,19.42,19.42,0,0,1-4.25,1.51,22.51,22.51,0,0,1-5,.53,17.42,17.42,0,0,1-6.35-1.06,12.92,12.92,0,0,1-4.6-3,12.41,12.41,0,0,1-2.8-4.6,17.52,17.52,0,0,1-.95-5.93,13.61,13.61,0,0,1,1.41-6.17,13,13,0,0,1,4.32-4.87,22.55,22.55,0,0,1,7.23-3.2,39.39,39.39,0,0,1,10.18-1.16h6.17V464a9.84,9.84,0,0,0-.51-3.27,5.9,5.9,0,0,0-1.64-2.48,7.75,7.75,0,0,0-3-1.58,15.36,15.36,0,0,0-4.45-.56,36.23,36.23,0,0,0-8.24.95,43.86,43.86,0,0,0-7.86,2.67v-9.05a45.87,45.87,0,0,1,7.82-2.22,46.84,46.84,0,0,1,9.2-.88,35.64,35.64,0,0,1,9,1,16.31,16.31,0,0,1,6.2,3,11.88,11.88,0,0,1,3.59,5,19.34,19.34,0,0,1,1.16,7v32.2Zm-1.63-20.83h-6.91a18.41,18.41,0,0,0-4.87.55,9.54,9.54,0,0,0-3.25,1.54,5.92,5.92,0,0,0-1.83,2.25,6.41,6.41,0,0,0-.58,2.71,5.3,5.3,0,0,0,1.86,4.38,7.74,7.74,0,0,0,5.05,1.51,8.81,8.81,0,0,0,4.92-1.72,35.36,35.36,0,0,0,5.61-4.91Z" transform="translate(-80.58 -427.65)"/><path class="cls-1" d="M765.67,495.69V465q0-7.75-5.75-7.75a8.21,8.21,0,0,0-5.5,2.32,40.19,40.19,0,0,0-5.54,6.31v29.83H737.56V448.56h9.79l.28,6.95a31.73,31.73,0,0,1,3-3.29,17.41,17.41,0,0,1,3.36-2.53,16.16,16.16,0,0,1,3.9-1.6,18.22,18.22,0,0,1,4.68-.55,15.55,15.55,0,0,1,6.31,1.18,12.23,12.23,0,0,1,4.5,3.34,14.26,14.26,0,0,1,2.71,5.19,23.56,23.56,0,0,1,.91,6.8v31.64Z" transform="translate(-80.58 -427.65)"/><path class="cls-1" d="M818.13,490.54A84.63,84.63,0,0,1,813,501.28a35.18,35.18,0,0,1-5.87,7.7,21.74,21.74,0,0,1-7.12,4.63,23.57,23.57,0,0,1-8.79,1.56c-.77,0-1.62,0-2.53-.12s-1.85-.19-2.81-.35v-9.6l1.28.21c.48.08,1,.14,1.51.19l1.6.11c.54,0,1,.05,1.51.05a8.86,8.86,0,0,0,3.61-.74,11.31,11.31,0,0,0,3.09-2.07,15.94,15.94,0,0,0,2.57-3.15,23.92,23.92,0,0,0,2-4l-18.69-47.13H797l9.78,26.72,2.93,8.62,2.87-8.25,9.88-27.09h12.16Z" transform="translate(-80.58 -427.65)"/><path class="cls-1" d="M441.38,489.42h20.24L430.9,427.65l-30.73,61.77h20.24l-2.8-4.86H408l4.44-8.92.83-1.68,17.61-35.4L448.5,474l.84,1.68,4.44,8.92h-9.6Z" transform="translate(-80.58 -427.65)"/><polygon class="cls-2" points="359.55 63.94 350.31 79.93 341.08 63.94 359.55 63.94"/></svg>