<svg xmlns="http://www.w3.org/2000/svg" viewBox="0 0 131.04 84.21"><defs><style>.cls-1{fill:#533293;}.cls-2{fill:#7a2edb;}.cls-3{fill:#fff;opacity:0.09;isolation:isolate;}.cls-4{fill:#f6a74b;}.cls-5{fill:#ee7853;}.cls-6{fill:#ef8154;}.cls-7{fill:#e95b52;}</style></defs><g id="Слой_3" data-name="Слой 3"><path class="cls-1" d="M141.14,43.29l.27-1,.24-1a20.8,20.8,0,0,0,.35-2.07c.05-.35.09-.71.12-1.06s.06-.7.08-1.07a26.4,26.4,0,0,0,0-2.67c0-.91-.12-1.81-.25-2.72-.05-.39-.12-.77-.18-1.16s-.13-.68-.21-1c0-.12-.05-.23-.08-.35A27.9,27.9,0,1,0,87.17,41.89c0,.09,0,.2.09.3s.1.41.14.61.14.51.22.77.16.54.26.82c.18.54.38,1.07.59,1.59s.43,1,.68,1.55c.11.24.24.5.37.75s.26.48.39.74c.27.48.55,1,.84,1.42l.46.7.12.17a25.09,25.09,0,0,0,1.76,2.31l.65.73.57.59a.43.43,0,0,0,.09.1c.34.36.71.69,1.07,1s.81.73,1.22,1.06c.21.18.43.34.64.5a27.83,27.83,0,0,0,23.39,5,27.51,27.51,0,0,0,12-6.21c.34-.3.68-.6,1-.91s.87-.87,1.28-1.33A26.71,26.71,0,0,0,136.82,52l.22-.31c.23-.32.45-.65.67-1s.31-.5.47-.75q.51-.82.93-1.68a14.11,14.11,0,0,0,.67-1.35v0A26.35,26.35,0,0,0,141.14,43.29Zm-6.57-3.93c-1.65-.94-3.36-1.84-5.06-2.63l.48-1c1.74.82,3.47,1.72,5.15,2.69ZM90.22,31.08l-.32.05L89.73,30c.38-.05.76-.12,1.14-.16a75.6,75.6,0,0,1,13.73-.57l-.07,1.15A71.88,71.88,0,0,0,90.22,31.08Zm20.07-1.25a67.72,67.72,0,0,1,8.5,1.73c2,.54,4,1.19,5.92,1.91l-.39,1.06c-1.9-.7-3.87-1.34-5.82-1.87A66.25,66.25,0,0,0,110.14,31Z" transform="translate(-11.2 -7.6)"/><path class="cls-2" d="M141.14,43.29l.27-1,.24-1c.14-.68.26-1.37.35-2.07.05-.35.09-.71.12-1.06s.06-.7.08-1.07a26.4,26.4,0,0,0,0-2.67c0-.91-.12-1.81-.25-2.72-.05-.39-.12-.77-.18-1.16s-.13-.68-.21-1a29.12,29.12,0,0,0-50.71.36,75.6,75.6,0,0,1,13.73-.57l-.07,1.15a71.88,71.88,0,0,0-14.31.66,28.92,28.92,0,0,0-3,11.11s0,0,0,.05c0,.18.09.37.15.56s.14.51.22.77.16.54.26.82c.18.54.38,1.07.59,1.59s.43,1,.68,1.55c.11.24.24.5.37.75s.26.48.39.74c.27.48.55,1,.84,1.42l.46.7.12.17a25.09,25.09,0,0,0,1.76,2.31l.65.73.57.59a.43.43,0,0,0,.09.1c.34.36.71.69,1.07,1s.81.73,1.22,1.06c.21.18.43.34.64.5a27.83,27.83,0,0,0,23.39,5,27.51,27.51,0,0,0,12-6.21c.34-.3.68-.6,1-.91s.87-.87,1.28-1.33A26.71,26.71,0,0,0,136.82,52l.22-.31c.23-.32.45-.65.67-1s.31-.5.47-.75q.51-.82.93-1.68c.24-.45.46-.89.67-1.35v0A26.35,26.35,0,0,0,141.14,43.29ZM130,35.69c1.74.82,3.47,1.72,5.15,2.69l-.57,1c-1.65-.94-3.36-1.84-5.06-2.63Zm-19.7-5.86a67.72,67.72,0,0,1,8.5,1.73c2,.54,4,1.19,5.92,1.91l-.39,1.06c-1.9-.7-3.87-1.34-5.82-1.87A66.25,66.25,0,0,0,110.14,31Z" transform="translate(-11.2 -7.6)"/><circle class="cls-3" cx="101.2" cy="45.02" r="7.18"/><circle class="cls-3" cx="114.15" cy="46.45" r="3.57"/><path class="cls-2" d="M68.27,37.83c-22.19,6.61-30.86,13.43-34.5,18.73a18.79,18.79,0,0,1-7.64,6.95c-4.75,2.21-9.76,1.64-13.23.81-.56,1.4-1.14,2.8-1.7,4.21,3,1.85,6.18,3.43,9.16,5.3L21.2,71l9.73,10.67L28,82.19c1.58,3.15,2.86,6.46,4.43,9.62l4.35-1.29c-.51-3.55-.6-8.56,2.05-13.11a16.5,16.5,0,0,1,3.63-4.3,22.92,22.92,0,0,1,4-2.66,26.29,26.29,0,0,0,6.75-5.63C57.6,59.86,62.73,51.62,68.27,37.83ZM46.37,57.77a5.4,5.4,0,1,1,7.63.35A5.41,5.41,0,0,1,46.37,57.77Z" transform="translate(-11.2 -7.6)"/><polygon class="cls-4" points="8.82 67.42 15.58 74.83 6.15 76.64 8.82 67.42"/><polygon class="cls-5" points="9.18 68.78 10.17 69.86 8.79 70.13 9.18 68.78"/><polygon class="cls-6" points="11.24 73.93 12.23 75.01 10.86 75.27 11.24 73.93"/><polygon class="cls-7" points="7.37 74.54 8.35 75.62 6.98 75.88 7.37 74.54"/><path class="cls-1" d="M43.7,51.12c-6.54,4.52-4.77,8.55-11.86,13-3.19,2-6.18,2.77-12.18,4.32-2.33.6-4.34,1.12-6,1.52C12.8,69.49,12,69,11.2,68.53c.57-1.4,1.13-2.81,1.69-4.21,3.48.83,8.49,1.4,13.24-.82a18.79,18.79,0,0,0,7.64-6.94c3.64-5.3,12.32-12.11,34.5-18.72l-.28.69a35,35,0,0,1-7.82,6.25C52.66,49.17,49.56,47.07,43.7,51.12Z" transform="translate(-11.2 -7.6)"/><path class="cls-3" d="M53.18,64.82a26.29,26.29,0,0,1-6.75,5.63,22.92,22.92,0,0,0-4,2.66q-.11-.31-.18-.63a7.18,7.18,0,0,1,10.92-7.66Z" transform="translate(-11.2 -7.6)"/><path class="cls-2" d="M70.39,36.64l-.44-1a83.88,83.88,0,0,1,14.16-4.54l.24,1.11A81.84,81.84,0,0,0,70.39,36.64Z" transform="translate(-11.2 -7.6)"/></g></svg>