<svg id="Слой_1" data-name="Слой 1" xmlns="http://www.w3.org/2000/svg" viewBox="0 0 145.33 590.39"><defs><style>.cls-1{fill:#7f7f7f;}.cls-2{fill:#bcbcbc;}</style></defs><rect class="cls-1" x="76.24" y="49.61" width="21.33" height="488.15"/><path class="cls-2" d="M144.8,560.71l-.88,8.32a23.87,23.87,0,0,1-1.28,5.59v-.34a23.83,23.83,0,0,0-21.18-26.2h0l-96.3-10.2A24,24,0,0,0,.08,554v-.15L1,545.54a23.87,23.87,0,0,1,26.24-21.23l60.75,6.41V62.94l-66.64-7A23.85,23.85,0,0,1,.08,29.72h0L1,21.39a24.63,24.63,0,0,1,.53-3.07A23.94,23.94,0,0,0,22.89,41.58l96.3,10.2a23.65,23.65,0,0,0,25.67-18.56,21.94,21.94,0,0,1-.11,3.34V555.77A23.31,23.31,0,0,1,144.8,560.71Z" transform="translate(0.42 0)"/><path class="cls-1" d="M142.68,574.28v.34a23.88,23.88,0,0,1-25,15.63L21.37,580.1a21.33,21.33,0,0,1-.91-42.65,21.56,21.56,0,0,1,4.74.43l96.3,10.2a23.81,23.81,0,0,1,21.18,26.19Z" transform="translate(0.42 0)"/><path class="cls-1" d="M144.91,33.19a23.65,23.65,0,0,1-25.67,18.56l-96.3-10.2A23.94,23.94,0,0,1,1.53,18.29,23.86,23.86,0,0,1,27.24.13l96.33,10.16A23.86,23.86,0,0,1,144.91,33.19Z" transform="translate(0.42 0)"/><path class="cls-1" d="M130.49,406.06h0a12,12,0,0,1,12,12v79.7a12,12,0,0,1-12,12h0a12,12,0,0,1-12-12v-79.7A12,12,0,0,1,130.49,406.06Z" transform="translate(0.42 0)"/><rect class="cls-1" x="96.98" y="164.87" width="21.93" height="114.96" rx="10.96"/><path class="cls-2" d="M130.56,467.69h0a9,9,0,0,1,9,9v20.52a9,9,0,0,1-9,9h0a9,9,0,0,1-9-9V476.69A9,9,0,0,1,130.56,467.69Z" transform="translate(0.42 0)"/><path class="cls-2" d="M107.52,167.23h0a8,8,0,0,1,8,8v38.64a8,8,0,0,1-8,8h0a8,8,0,0,1-8-8V175.22A8,8,0,0,1,107.52,167.23Z" transform="translate(0.42 0)"/></svg>