<?xml version="1.0" encoding="utf-8"?>
<!-- Generator: Adobe Illustrator 25.1.0, SVG Export Plug-In . SVG Version: 6.00 Build 0)  -->
<svg version="1.1" id="Слой_1" xmlns="http://www.w3.org/2000/svg" xmlns:xlink="http://www.w3.org/1999/xlink" x="0px" y="0px"
	 viewBox="0 0 504.5 894.7" style="enable-background:new 0 0 504.5 894.7;" xml:space="preserve">
<style type="text/css">
	.st0{fill:#7A2EDB;}
	.st1{opacity:9.000000e-02;fill:#FFFFFF;enable-background:new    ;}
	.st2{fill:none;stroke:#7A2EDB;stroke-width:2.5;stroke-miterlimit:10;}
	.st3{opacity:0.64;fill:#824DD6;enable-background:new    ;}
</style>
<path class="st0" d="M386.2,689.3c-7.9-25.7-11.5-52.5-10.4-79.4c1.2-31.6,7.7-56.3,10.3-67.5c7.5-31.9,10.9-72.4,5.5-124.9
	c-9.7-92.5-46-222.4-134.5-407.7c-1.5-3.2-3.1-6.5-4.7-9.7c0,0,0,0,0-0.1C109.3,296.8,97.8,453.3,118.6,542.4c0.5,1.9,1,4.2,1.7,6.9
	c3.1,12.6,5.4,25.3,6.9,38.1c2.1,17.9,2.4,36.1,0.8,54.1c-0.1,1.5-0.3,2.9-0.4,4.4c-0.3,2.8-0.7,5.7-1.1,8.6c0,0.2-0.1,0.4-0.1,0.6
	c-0.2,1.3-0.4,2.5-0.6,3.8c-0.4,2.4-0.9,4.8-1.3,7.2c-1.6,7.9-3.6,15.7-5.9,23.4c-15.7,50.1-47,88.3-78.9,116.5
	c-4.2,3.8-8.5,7.3-12.7,10.8c-9.2,7.4-18.2,14-26.7,19.7l0,0c4.5,9.3,9,18.5,13.4,27.8c0.2,0.4,0.4,0.8,0.6,1.2
	c4.7,9.7,9.4,19.5,14.1,29.2c3-0.9,6-1.8,9-2.7l0.6-0.2c9.7-3,19.3-6.2,28.9-9.5c34.8-12,69.3-25.4,105.1-33.1
	c19.9-4.3,60.2-12.5,80.6-12.5s60.5,8.1,80.4,12.4c49,10.6,95.4,31.9,143.6,45.7c9.3-19.4,18.7-38.8,28.2-58.2
	C462.3,807.9,408.7,760.8,386.2,689.3z M252.2,421.5c-42.4,0-76.9-34.4-76.9-76.8s34.4-76.9,76.8-76.9s76.9,34.4,76.9,76.8
	C328.9,387,294.6,421.4,252.2,421.5L252.2,421.5z"/>
<path class="st1" d="M391.6,417.5c5.4,52.5,2,93-5.5,124.9c-2.6,11.2-9.2,35.9-10.3,67.5c-2.9-1.2-5.7-2.6-8.4-4.1
	c-49.3-27.4-67.1-89.6-39.7-138.9C341.3,442.3,364.4,424.5,391.6,417.5L391.6,417.5z"/>
<line class="st2" x1="253" y1="387.8" x2="241.5" y2="403.6"/>
<line class="st2" x1="251.5" y1="387.8" x2="263.1" y2="403.6"/>
<line class="st2" x1="253" y1="370.6" x2="241.5" y2="386.5"/>
<line class="st2" x1="251.5" y1="370.6" x2="263.1" y2="386.5"/>
<line class="st2" x1="252.3" y1="388.8" x2="252.3" y2="371.7"/>
<path class="st0" d="M252.8,281.8c-0.2,0-0.4,0-0.6,0c-0.2,0-0.4,0-0.6,0c-1.9,0-3.7,0.1-5.6,0.3c-1.6,0.1-3.3,0.4-4.9,0.7l0,0
	c-1.4,0.2-2.8,0.5-4.2,0.9c-0.7,0.2-1.3,0.3-2,0.6c0,0-0.1,0-0.1,0c-22.3,6.5-39.2,24.8-43.9,47.5c-0.1,0.7-0.3,1.4-0.4,2.1
	s-0.2,1.5-0.3,2.2s-0.2,1.6-0.3,2.4c-0.2,2-0.3,4-0.3,6c0,2.4,0.1,4.9,0.4,7.3c0.7,6.1,2.3,12,4.7,17.6h114.9
	c13.7-31.8-0.9-68.6-32.7-82.3C269.4,283.6,261.2,281.9,252.8,281.8L252.8,281.8z M288.2,312.8c0,6.5-5.2,11.7-11.7,11.7
	c-6.5,0-11.7-5.2-11.7-11.7c0-6.5,5.2-11.7,11.7-11.7c0,0,0,0,0,0C283,301.1,288.2,306.4,288.2,312.8L288.2,312.8z M254.3,290.1
	c5,0,9.1,4.1,9.1,9.1c0,5-4.1,9.1-9.1,9.1c-5,0-9.1-4.1-9.1-9.1l0,0C245.2,294.2,249.2,290.2,254.3,290.1z"/>
<path class="st0" d="M261.6,278.2c-3.1-0.4-6.2-0.7-9.3-0.7c-2.6,0-5.2,0.2-7.9,0.5c-0.5,0-1,0.1-1.4,0.2c-1.1,0.1-2.2,0.3-3.2,0.5
	c-0.1,0-0.1,0-0.2,0c-1.2,0.2-2.4,0.5-3.5,0.8c-0.2,0.1-0.5,0.1-0.7,0.2c-2.1,0.5-4.1,1.2-6.1,1.9c-0.2,0.1-0.5,0.2-0.7,0.3
	c-0.6,0.2-1.2,0.5-1.8,0.7l-1.8,0.8l-2.1,1c-0.7,0.3-1.4,0.7-2.1,1.1c-1.4,0.8-2.7,1.5-4,2.4c-0.7,0.4-1.5,0.9-2.2,1.4
	c-1.2,0.9-2.4,1.7-3.5,2.6c-0.6,0.5-1.2,1-1.8,1.5s-1.1,0.9-1.6,1.4s-0.7,0.7-1.1,1c-0.5,0.5-1,0.9-1.5,1.4s-1,1-1.4,1.5l-1.4,1.5
	c-2.7,3.1-5.2,6.4-7.3,10c-0.3,0.5-0.6,1-0.9,1.6c-0.4,0.7-0.8,1.5-1.2,2.3c-0.3,0.5-0.6,1.1-0.8,1.6s-0.6,1.2-0.9,1.9
	s-0.6,1.3-0.8,2c-0.5,1.1-0.9,2.3-1.3,3.4c-0.1,0.4-0.3,0.8-0.4,1.2c-0.2,0.7-0.4,1.4-0.6,2.1c-0.3,1-0.5,2-0.8,3
	c-0.1,0.6-0.3,1.1-0.4,1.7c0,0.3-0.1,0.6-0.1,0.9l-0.4,2.1c-0.1,0.7-0.2,1.5-0.3,2.2s-0.2,1.6-0.3,2.4c-0.2,2-0.3,4-0.3,6
	c0,0.3,0,0.6,0,0.9c0.1,8.8,1.9,17.6,5.5,25.7l1.1,2.5h120.5l1.1-2.6c14.6-33.9-1-73.3-34.9-87.9
	C273.2,280.7,267.5,279.1,261.6,278.2L261.6,278.2z M197.7,365c-2.5-6.6-3.8-13.6-3.8-20.7c0-2,0.1-4,0.3-6c0.2-1.9,0.5-3.9,0.9-5.8
	c4.6-21.9,21.3-39.3,43-44.8c0.1,0,0.2-0.1,0.4-0.1c0.6-0.1,1.1-0.3,1.7-0.4h0.1c31.6-6.6,62.5,13.7,69.1,45.3
	c0.8,3.9,1.2,7.8,1.2,11.8c0,7-1.3,14-3.7,20.6L197.7,365z"/>
<path class="st1" d="M391.6,417.4c-42.6-30.1-55.7-87.5-30.3-133.1c0.8-1.3,1.5-2.6,2.3-3.9C378.8,333.4,387.5,378.7,391.6,417.4z"
	/>
<path class="st3" d="M329,344.6c0,42.4-34.4,76.9-76.8,76.9s-76.9-34.4-76.9-76.8s34.4-76.9,76.8-76.9
	C294.5,267.8,328.9,302.2,329,344.6z"/>
<path class="st1" d="M216.5,194.5c-13.6,24.5-36.7,42.4-63.9,49.3c0-0.3-0.1-0.6-0.1-0.8c14.9-46.1,34.4-97.5,59.5-155.1
	C232.7,118.8,235.8,159.8,216.5,194.5z"/>
</svg>
