<?xml version="1.0" encoding="utf-8"?>
<!-- Generator: Adobe Illustrator 25.1.0, SVG Export Plug-In . SVG Version: 6.00 Build 0)  -->
<svg version="1.1" id="Слой_1" xmlns="http://www.w3.org/2000/svg" xmlns:xlink="http://www.w3.org/1999/xlink" x="0px" y="0px"
	 viewBox="0 0 494.7 494.7" style="enable-background:new 0 0 494.7 494.7;" xml:space="preserve">
<style type="text/css">
	.st0{fill:#FB9D26;}
</style>
<circle class="st0" cx="247.3" cy="247.3" r="185.9"/>
<path class="st0" d="M264.1,29.1c-5.5-0.4-11.1-0.6-16.8-0.6s-11.3,0.2-16.8,0.6L247.3,0L264.1,29.1z"/>
<path class="st0" d="M413.5,104.9c-3.6-4.2-7.4-8.3-11.4-12.3s-8.1-7.8-12.3-11.4l32.5-8.7L413.5,104.9z"/>
<path class="st0" d="M465.5,264.1c0.4-5.5,0.6-11.1,0.6-16.8s-0.2-11.3-0.6-16.8l29.1,16.8L465.5,264.1z"/>
<path class="st0" d="M389.7,413.5c4.2-3.6,8.3-7.4,12.3-11.4s7.8-8.1,11.4-12.3l8.7,32.5L389.7,413.5z"/>
<path class="st0" d="M230.5,465.5c5.6,0.4,11.2,0.6,16.8,0.6s11.3-0.2,16.8-0.6l-16.8,29.1L230.5,465.5z"/>
<path class="st0" d="M81.2,389.7c3.6,4.2,7.4,8.3,11.4,12.3s8.1,7.8,12.3,11.4l-32.5,8.7L81.2,389.7z"/>
<path class="st0" d="M29.1,230.5c-0.4,5.6-0.6,11.2-0.6,16.8s0.2,11.3,0.6,16.8L0,247.3L29.1,230.5z"/>
<path class="st0" d="M104.9,81.2c-4.2,3.6-8.3,7.4-12.3,11.4s-7.8,8.1-11.4,12.3l-8.7-32.5L104.9,81.2z"/>
</svg>
