<svg id="Слой_1" data-name="Слой 1" xmlns="http://www.w3.org/2000/svg" viewBox="0 0 1000 1000"><defs><style>.cls-1{fill:#1e0f00;}</style></defs><path class="cls-1" d="M30.22,1000A30,30,0,0,1,9,948.79L409.6,548.19A30,30,0,1,1,452,590.62L51.44,991.21A29.92,29.92,0,0,1,30.22,1000Z"/><path class="cls-1" d="M30.22,1000a30,30,0,0,1-30-30V734.44a30,30,0,0,1,60,0V970A30,30,0,0,1,30.22,1000Z"/><path class="cls-1" d="M265.56,1000H30a30,30,0,0,1,0-60H265.56a30,30,0,0,1,0,60Z"/><path class="cls-1" d="M969.78,0A30,30,0,0,1,991,51.21L590.4,451.81A30,30,0,1,1,548,409.38L948.56,8.79A29.92,29.92,0,0,1,969.78,0Z"/><path class="cls-1" d="M969.78,0a30,30,0,0,1,30,30V265.56a30,30,0,0,1-60,0V30A30,30,0,0,1,969.78,0Z"/><path class="cls-1" d="M734.44,0H970a30,30,0,0,1,0,60H734.44a30,30,0,0,1,0-60Z"/></svg>