<svg xmlns="http://www.w3.org/2000/svg" xmlns:xlink="http://www.w3.org/1999/xlink" viewBox="0 0 125.61 115.74"><defs><style>.cls-1{fill:url(#Безымянный_градиент);}</style><linearGradient id="Безымянный_градиент" x1="75.21" y1="115.67" x2="53.92" y2="-5.1" gradientTransform="matrix(1, 0, 0, -1, -1.74, 113.15)" gradientUnits="userSpaceOnUse"><stop offset="0" stop-color="#fff448"/><stop offset="0.05" stop-color="#ffe442"/><stop offset="0.12" stop-color="#ffd13b"/><stop offset="0.2" stop-color="#ffc636"/><stop offset="0.28" stop-color="#ffc235"/><stop offset="0.67" stop-color="#f58b4e"/><stop offset="0.89" stop-color="#f06d4e"/><stop offset="1" stop-color="#ec574e"/></linearGradient></defs><g id="Слой_2" data-name="Слой 2"><g id="Слой_1-2" data-name="Слой 1"><path class="cls-1" d="M103.34,59.55A.7.7,0,0,0,103,60,37.61,37.61,0,0,1,90,83a.57.57,0,0,1-.21.13l-.13,0h-.32l-2-.26h-.4a3.37,3.37,0,0,0-.9.12h0l-4.88,1.6a2.21,2.21,0,0,0-1.58,1.1l-.06.08c-.7,1.15-2,3.31-3.09,5a.48.48,0,0,0-.08.16.94.94,0,0,1-.07.26h0a19.55,19.55,0,0,0-.57,2.63.62.62,0,0,0,.62.7h.15c1-.25,2-.55,3-.89a.6.6,0,0,0,.38-.35l.25-.6a.92.92,0,0,1,.85-.56h1.11a.76.76,0,0,1,.76.76v5.14h0l-.06,8.9a2,2,0,0,0,4,.22V107l.06-9.38h.75v.42l0,9v.19a2,2,0,0,0,4,0V97.66h.74V98l-.06,9v.19a2,2,0,0,0,4,0V107l.06-9.38H97v9.56a2,2,0,0,0,4-.17c0-7,.35-11.67.41-12.53h0v-.4a7.42,7.42,0,0,1,.18-2.25v-.08a4.84,4.84,0,0,1,1-1.34h0l1.25-1.33a52.2,52.2,0,0,0,12-22.1.63.63,0,0,0-.42-.75,2.44,2.44,0,0,1-.57-.26L104,59.58a.59.59,0,0,0-.31-.09.67.67,0,0,0-.28.06Zm-7-43.13a2.39,2.39,0,0,1-.52.38L84.79,23a.64.64,0,0,0-.32.49.6.6,0,0,0,.23.54A37.57,37.57,0,0,1,98.14,47a.49.49,0,0,1,0,.24v.14a1,1,0,0,1-.13.3l-1.22,1.57a3.11,3.11,0,0,0-.53,1.1h0l-1.08,5a2.24,2.24,0,0,0,.08,2s1.62,3,2.76,5.25a.33.33,0,0,0,.11.15v.06l.13.13a18,18,0,0,0,2,1.8.65.65,0,0,0,.38.13h.2a.62.62,0,0,0,.4-.42c.29-1,.54-2,.73-3a.6.6,0,0,0-.11-.5l-.37-.5a.87.87,0,0,1-.06-1l.56-.95a.8.8,0,0,1,1.07-.28l12.2,7.13a2,2,0,0,0,1,.28,1.86,1.86,0,0,0,.52-.07,2,2,0,0,0,.68-3.55h-.16l-8.07-4.78.39-.65.32.19,7.75,4.59h.12a1.84,1.84,0,0,0,.83.19,2,2,0,0,0,1.75-1,2,2,0,0,0-.55-2.63h0l-.11-.06-8.07-4.78.38-.65.33.19,7.75,4.58.09.06h.07a1.84,1.84,0,0,0,.83.19,2.31,2.31,0,0,0,.52-.06,2,2,0,0,0,.68-3.56h-.14l-8.07-4.78.38-.65.33.18,7.75,4.6h.16a2,2,0,0,0,.83.19,2,2,0,0,0,2.06-1.93,2.21,2.21,0,0,0-.06-.57,2,2,0,0,0-.92-1.23c-5.87-3.47-9.61-6-10.61-6.66h0l-.21-.11-.13-.06a7.18,7.18,0,0,1-1.84-1.29h0a4.21,4.21,0,0,1-.65-1.56h0l-.52-1.76a52.25,52.25,0,0,0-13.5-21.79.63.63,0,0,0-.43-.17A.56.56,0,0,0,96.31,16.42ZM86.46.26c-5.94,3.35-10,5.34-11.08,5.87h0l-.19.12h0l-.1.07a7.2,7.2,0,0,1-2,.95h0a1.6,1.6,0,0,1-.31,0,5.18,5.18,0,0,1-1.52-.16h0l-1.78-.42A52.85,52.85,0,0,0,58.56,5.43h0A51.46,51.46,0,0,0,44,7.37a.63.63,0,0,0-.44.74,2.79,2.79,0,0,1,.07.64l-.08,9.07v3.53a.63.63,0,0,0,.27.52.61.61,0,0,0,.35.11.49.49,0,0,0,.24,0,36.37,36.37,0,0,1,13.75-2.61A38.4,38.4,0,0,1,71,21.72a.56.56,0,0,1,.2.11l.12.1a.83.83,0,0,1,.19.26l.77,1.86A3.15,3.15,0,0,0,73,25.13h0l3.82,3.44a2.19,2.19,0,0,0,1.73.82h.1c1.34,0,3.88.13,5.84.22h.18l.26-.07h0a19.63,19.63,0,0,0,2.57-.81.63.63,0,0,0,.32-.83,1,1,0,0,0-.11-.17C87,27,86.22,26.27,85.45,25.6a.64.64,0,0,0-.41-.16H85l-.65.08h-.12a.91.91,0,0,1-.79-.46l-.54-1a.76.76,0,0,1,.3-1l12.26-6.91a2,2,0,0,0,.76-2.72h0a2,2,0,0,0-1.73-1,2,2,0,0,0-.83.18h-.06l-.1.06-8.2,4.62-.36-.66.32-.19L93.06,12l.1-.06h.07a2,2,0,0,0,.6-2.62,2,2,0,0,0-1.19-1,2.32,2.32,0,0,0-.52-.07,2.12,2.12,0,0,0-.83.17h-.06L83,13.14l-.38-.66.33-.18,7.84-4.43h.14a2,2,0,0,0-1.13-3.64,1.82,1.82,0,0,0-.83.17h-.17L80.6,9l-.34-.64.33-.19,7.84-4.42.11-.06h.06A2,2,0,0,0,87.46,0,2,2,0,0,0,86.46.26ZM40.14,6.85a1.94,1.94,0,0,0-.65.43A2,2,0,0,0,38.9,8.5a.14.14,0,0,0,0,.09v.1l-.09,9.38h-.76v-.38l.09-9V8.5a2,2,0,0,0-.57-1.23,2,2,0,0,0-1.41-.6,2.18,2.18,0,0,0-.76.14,2,2,0,0,0-1.25,1.65v.19L34.07,18h-.76v-.37l.08-9a.24.24,0,0,1,0-.12V8.47a2.14,2.14,0,0,0-.56-1.24,2,2,0,0,0-2.83,0h0a2,2,0,0,0-.59,1.14.11.11,0,0,0,0,.08v.11l-.09,9.38h-.76v-.38l.09-9V8.37a2,2,0,1,0-4,.16c-.06,6.84-.39,11.35-.39,12.55h0a.71.71,0,0,0,0,.29v.16a8,8,0,0,1-.19,2.23v0h0a4.56,4.56,0,0,1-1,1.34h0l-1.25,1.33A52,52,0,0,0,9.61,48.87a.38.38,0,0,0,0,.15.61.61,0,0,0,.44.61,3.37,3.37,0,0,1,.59.25l10.86,6.4a.65.65,0,0,0,.31.08.66.66,0,0,0,.27-.06.59.59,0,0,0,.35-.47,37.59,37.59,0,0,1,13.1-23.14.72.72,0,0,1,.21-.12l.14,0a.88.88,0,0,1,.23,0h.09l2,.26h.4a2.7,2.7,0,0,0,.89-.12h0l4.88-1.59A2.22,2.22,0,0,0,46,30c.08-.12,1.84-3,3.16-5,0,0,.05-.1.08-.16l.07-.26a19.55,19.55,0,0,0,.57-2.63.62.62,0,0,0-.2-.54.7.7,0,0,0-.41-.16h-.16q-1.5.38-3,.87a.64.64,0,0,0-.37.35l-.26.6a.91.91,0,0,1-.85.56h-1.1a.76.76,0,0,1-.77-.77h0V17.64l.08-8.9a2,2,0,0,0-2-2A2.22,2.22,0,0,0,40.14,6.85ZM8.72,50.37a2,2,0,0,0-1.22.92,2,2,0,0,0,.55,2.64h.07l.09.06,8.05,4.74-.38.65-.32-.19L7.82,54.62H7.75l-.09,0a2.15,2.15,0,0,0-.82-.2,1.88,1.88,0,0,0-.53.07,2,2,0,0,0-1.43,2.44A1.94,1.94,0,0,0,5.64,58H5.8l1.67,1,4.41,2.6h0l2,1.17-.39.65-.32-.19L5.42,58.72l-.09-.06H5.26a2.18,2.18,0,0,0-.83-.19,1.81,1.81,0,0,0-.52.07,2,2,0,0,0-.65,3.52h.16l8.08,4.76-.38.65-.35-.1L3,62.81l-.1-.06H2.85A2.18,2.18,0,0,0,2,62.56a1.81,1.81,0,0,0-.52.07A2,2,0,0,0,.06,65.07,2,2,0,0,0,1,66.29c6,3.55,9.91,6.16,10.63,6.64h0l.2.11h0l.12.06a8,8,0,0,1,1.89,1.27h0a4.21,4.21,0,0,1,.65,1.56h0L15,77.68A52.17,52.17,0,0,0,28.33,99.33a.61.61,0,0,0,.43.17.66.66,0,0,0,.44-.17,2.82,2.82,0,0,1,.51-.38l11-6.21a.64.64,0,0,0,.32-.5.65.65,0,0,0-.24-.54A37.55,37.55,0,0,1,27.33,68.87a1,1,0,0,1,0-.24v-.14a.56.56,0,0,1,.12-.3l1.22-1.57a3.31,3.31,0,0,0,.59-1.17h0l1.06-5a2.23,2.23,0,0,0-.16-1.92s-1.64-3-2.78-5.25a.71.71,0,0,0-.1-.14l-.19-.2a21.35,21.35,0,0,0-2-1.81.72.72,0,0,0-.37-.13h-.21a.6.6,0,0,0-.4.42q-.42,1.5-.72,3a.58.58,0,0,0,.11.49l.4.53a.93.93,0,0,1,.06,1l-.56,1a.77.77,0,0,1-.68.38.7.7,0,0,1-.38-.11L10.26,50.53a2.09,2.09,0,0,0-1-.28A1.93,1.93,0,0,0,8.72,50.37Zm32.33,35.8H40.9l-.27.06h0a20.66,20.66,0,0,0-2.56.83.63.63,0,0,0-.37.45.64.64,0,0,0,.16.56c.71.73,1.47,1.45,2.24,2.12a.61.61,0,0,0,.41.15h.08l.65-.08h.13a.91.91,0,0,1,.78.46l.55,1a.77.77,0,0,1-.29,1h0l-12.24,7A2,2,0,0,0,32,103.34H32l.09-.06,8.13-4.74.36.66-.32.19-7.82,4.44-.1,0H32.3a2,2,0,0,0,.62,3.57,1.82,1.82,0,0,0,.52.08,2,2,0,0,0,.83-.18h.17l1.68-1h.07l6.4-3.63.38.65-.33.19L34.8,108h-.15a2,2,0,0,0-.78,1.11,1.93,1.93,0,0,0,.19,1.52,2,2,0,0,0,1.2.94,1.81,1.81,0,0,0,.52.07,1.85,1.85,0,0,0,.83-.17h.07l.1-.07,8.16-4.63.37.66-.32.19-7.83,4.44-.09.05H37a2,2,0,0,0-.59,2.62,2,2,0,0,0,1.72,1,2.07,2.07,0,0,0,1-.26c6-3.38,10-5.37,11.06-5.9h0l.18-.11h0l.1-.08a7.8,7.8,0,0,1,2-1h0a1.6,1.6,0,0,1,.31,0,5.24,5.24,0,0,1,1.36.23h0l1.79.42a53.23,53.23,0,0,0,11,1.33,51.4,51.4,0,0,0,14.63-2,.63.63,0,0,0,.44-.74A2.73,2.73,0,0,1,82,107L82,97.92h0V94.44a.62.62,0,0,0-.62-.63.88.88,0,0,0-.23,0,36.59,36.59,0,0,1-13.91,2.56,38.5,38.5,0,0,1-12.71-2.31.72.72,0,0,1-.21-.12l-.08-.11a.61.61,0,0,1-.19-.26l-.76-1.84a3.44,3.44,0,0,0-.73-1.08h0l-3.82-3.42A2.23,2.23,0,0,0,47,86.37h-.13c-2.32-.07-4.38-.14-5.81-.21Z"/></g></g></svg>