<?xml version="1.0" encoding="utf-8"?>
<!-- Generator: Adobe Illustrator 25.1.0, SVG Export Plug-In . SVG Version: 6.00 Build 0)  -->
<svg version="1.1" id="Слой_1" xmlns="http://www.w3.org/2000/svg" xmlns:xlink="http://www.w3.org/1999/xlink" x="0px" y="0px"
	 viewBox="0 0 176.2 50" style="enable-background:new 0 0 176.2 50;" xml:space="preserve">
<style type="text/css">
	.st0{fill:#FF931E;}
	.st1{fill:#FFFFFF;}
</style>
<g id="Games">
	<g id="XMLID_1_">
		<g>
			<path class="st0" d="M176.2,17v16c0,9.4-7.6,17-17,17H17C7.6,50,0,42.4,0,33V17C0,7.6,7.6,0,17,0h142.1h0
				C168.6,0,176.2,7.6,176.2,17z M137.1,35.1V14.9h-5.3v5.3c0,2.8,0.1,5.5,0.4,8.2h-0.1c-1-2.6-2.2-5.2-3.6-7.7l-3.3-5.9h-7.1v20.3
				h5.3v-5.5c0-3.1,0-6-0.2-9.1h0.1c1.2,2.7,2.5,5.3,3.9,7.9l3.7,6.7H137.1z M114.3,35.1V14.9h-5.7v20.3H114.3z M98.7,34l0-11h-2
				v-2.8l1.2-4.5c-2.2-0.8-4.5-1.2-6.8-1.1c-7.2,0-12.8,3.7-12.8,10.7c0,2.6,1.1,5.2,3,7c2,1.9,5,3,9.5,3
				C93.5,35.3,96.2,34.9,98.7,34z M76.2,24.9c0-6-4.1-10.4-10.9-10.4c-6.6,0-11.1,4.5-11.1,10.7c0,5.8,4.1,10.3,10.7,10.3
				C71.8,35.5,76.2,31,76.2,24.9z M53.5,35.1l0-4.8h-8.8V14.9H39v20.3H53.5z"/>
			<path class="st1" d="M137.1,14.9v20.3h-6.2l-3.7-6.7c-1.4-2.5-2.7-5.2-3.9-7.9h-0.1c0.2,3.1,0.2,6,0.2,9.1v5.5h-5.3V14.9h7.1
				l3.3,5.9c1.4,2.5,2.6,5,3.6,7.7h0.1c-0.3-2.7-0.4-5.5-0.4-8.2v-5.3H137.1z"/>
			<rect x="108.6" y="14.9" class="st1" width="5.7" height="20.3"/>
			<path class="st1" d="M98.8,23l0,11c-2.5,0.8-5.2,1.2-7.8,1.3c-4.4,0-7.5-1.1-9.5-3c-1.9-1.8-3-4.4-3-7c0-7,5.6-10.7,12.8-10.7
				c2.3-0.1,4.6,0.3,6.8,1.1l-1.2,4.5c-1.8-0.7-3.7-1.1-5.7-1c-3.6,0-6.6,1.8-6.6,5.6c0,3.6,2.7,6,6.6,6c0.7,0,1.4,0,2.1-0.2v-3.3
				h-3.1V23h6.7H98.8z"/>
			<path class="st0" d="M96.7,20.2V23h-6.7v4.4h3.1v3.3c-0.7,0.2-1.4,0.2-2.1,0.2c-3.9,0-6.6-2.4-6.6-6c0-3.9,3.1-5.6,6.6-5.6
				C93,19.1,94.9,19.5,96.7,20.2z"/>
			<path class="st1" d="M65.2,14.5c6.8,0,10.9,4.4,10.9,10.4c0,6.1-4.3,10.6-11.3,10.6c-6.7,0-10.7-4.5-10.7-10.3
				C54.1,19,58.6,14.5,65.2,14.5z M65.2,31.1c3.1,0,4.9-2.6,4.9-6.1s-1.9-6.1-4.9-6.1c-3,0-5,2.6-5,6.1S62.1,31.1,65.2,31.1z"/>
			<path class="st0" d="M70.1,25c0,3.5-1.9,6.1-4.9,6.1s-5-2.6-5-6.1s2-6.1,5-6.1C68.2,18.9,70.1,21.5,70.1,25z"/>
			<polygon class="st1" points="53.4,30.4 53.5,35.1 39,35.1 39,14.9 44.7,14.9 44.7,30.4 			"/>
		</g>
		<g>
		</g>
	</g>
</g>
</svg>
