<svg xmlns="http://www.w3.org/2000/svg" viewBox="0 0 176.2 50"><defs><style>.cls-1{fill:#fff;}.cls-2{fill:#ff931e;}</style></defs><g id="Слой_2" data-name="Слой 2"><g id="Слой_1-2" data-name="Слой 1"><path class="cls-1" d="M43.42,14.37l-1.3,4.44a12.67,12.67,0,0,0-5-1c-1.68,0-2.64.54-2.64,1.41,0,1.08,1.29,1.44,3.93,2.28,3.93,1.26,5.79,3.14,5.79,6.21,0,3.39-2.67,6.51-9.12,6.51a16,16,0,0,1-6.57-1.38l1.17-4.62a13.81,13.81,0,0,0,5.82,1.41c1.89,0,2.85-.6,2.85-1.62s-.93-1.44-3.39-2.13c-3.45-1-6.3-2.74-6.3-6.24,0-3.66,3.3-6.36,8.55-6.36A15.15,15.15,0,0,1,43.42,14.37Z"/><rect class="cls-1" x="47.41" y="13.59" width="5.67" height="20.22"/><path class="cls-1" d="M76.35,21.69v11A27.18,27.18,0,0,1,68.52,34c-4.44,0-7.47-1.08-9.45-3a9.39,9.39,0,0,1-2.93-7c0-7,5.55-10.67,12.74-10.67a16.91,16.91,0,0,1,6.66,1.11l-1.2,4.44a13.73,13.73,0,0,0-5.64-1c-3.54,0-6.6,1.74-6.6,5.61,0,3.6,2.7,6,6.6,6a7.8,7.8,0,0,0,2.1-.21V26H67.68V21.69Z"/><path class="cls-1" d="M98.88,13.59V33.81H92.67L89,27.12a86.55,86.55,0,0,1-3.9-7.83H85c.16,3.05.18,6,.18,9.06v5.46H79.92V13.59H87l3.34,5.85a56.77,56.77,0,0,1,3.56,7.65H94a66.77,66.77,0,0,1-.39-8.22V13.59Z"/><path class="cls-1" d="M127.86,13.59V24.42c0,6.6-3.51,9.75-9.65,9.75-5.79,0-9.18-2.94-9.18-9.91V13.59h5.67v11c0,3.18,1.17,5.22,3.75,5.22s3.75-1.89,3.75-5.22v-11Z"/><path class="cls-1" d="M145.68,15a6,6,0,0,1,2.46,5,6.42,6.42,0,0,1-2,4.92c-1.74,1.53-4.2,2.22-7.32,2.22-.63,0-1.17-.06-1.53-.09v6.75h-5.6v-20a48.64,48.64,0,0,1,7.41-.45C142.14,13.41,144.27,14,145.68,15Zm-3.15,5c0-1.47-1.11-2.43-3.36-2.43a10.64,10.64,0,0,0-1.86.12v5a7.3,7.3,0,0,0,1.48.1C141,22.86,142.53,21.87,142.53,20Z"/><path class="cls-2" d="M139.17,17.61c2.25,0,3.36,1,3.36,2.43,0,1.83-1.56,2.82-3.74,2.82a7.3,7.3,0,0,1-1.48-.1v-5A10.64,10.64,0,0,1,139.17,17.61Z"/><path class="cls-2" d="M74.34,18.93l1.2-4.44a16.91,16.91,0,0,0-6.66-1.11c-7.19,0-12.74,3.69-12.74,10.67a9.39,9.39,0,0,0,2.93,7c2,1.89,5,3,9.45,3a27.18,27.18,0,0,0,7.83-1.29v-11H67.68V26H70.8v3.27a7.8,7.8,0,0,1-2.1.21c-3.9,0-6.6-2.37-6.6-6,0-3.87,3.06-5.61,6.6-5.61A13.73,13.73,0,0,1,74.34,18.93ZM176.2,17V33a17,17,0,0,1-17,17H17A17,17,0,0,1,0,33V17A17,17,0,0,1,17,0H159.1a17.07,17.07,0,0,1,12.11,5A16.88,16.88,0,0,1,176.2,17Zm-28.06,3a6,6,0,0,0-2.46-5c-1.41-1-3.54-1.62-6.56-1.62a48.64,48.64,0,0,0-7.41.45v20h5.6V27.06c.36,0,.9.09,1.53.09,3.12,0,5.58-.69,7.32-2.22A6.42,6.42,0,0,0,148.14,20Zm-20.28,4.41V13.59H122.2v11c0,3.33-1.18,5.22-3.75,5.22s-3.75-2-3.75-5.22v-11H109V24.26c0,7,3.39,9.91,9.18,9.91C124.35,34.17,127.86,31,127.86,24.42Zm-29,9.39V13.59H93.63v5.28A66.77,66.77,0,0,0,94,27.09h-.09a56.77,56.77,0,0,0-3.56-7.65L87,13.59H79.92V33.81h5.25V28.35c0-3.06,0-6-.18-9.06h.12A86.55,86.55,0,0,0,89,27.12l3.66,6.69Zm-45.8,0V13.59H47.41V33.81Zm-11-15,1.3-4.44a15.15,15.15,0,0,0-6.18-1.14c-5.25,0-8.55,2.7-8.55,6.36,0,3.5,2.85,5.28,6.3,6.24,2.46.69,3.39,1.26,3.39,2.13s-1,1.62-2.85,1.62a13.81,13.81,0,0,1-5.82-1.41l-1.17,4.62a16,16,0,0,0,6.57,1.38c6.45,0,9.12-3.12,9.12-6.51,0-3.07-1.86-4.95-5.79-6.21-2.64-.84-3.93-1.2-3.93-2.28,0-.87,1-1.41,2.64-1.41A12.67,12.67,0,0,1,42.12,18.81Z"/></g></g></svg>